<svg width="170" height="38" viewBox="0 0 170 38" fill="none" xmlns="http://www.w3.org/2000/svg">
<path d="M54.0465 11.72C55.8199 11.72 57.2799 12.1533 58.4265 13.02C59.5732 13.8867 60.2865 15.06 60.5665 16.54H56.9465C56.7065 16.0333 56.3399 15.6333 55.8465 15.34C55.3532 15.0333 54.7599 14.88 54.0665 14.88C52.9865 14.88 52.1199 15.2467 51.4665 15.98C50.8132 16.7 50.4865 17.68 50.4865 18.92C50.4865 20.2667 50.8265 21.3 51.5065 22.02C52.1999 22.74 53.1799 23.1 54.4465 23.1C55.2599 23.1 55.9732 22.88 56.5865 22.44C57.1999 21.9867 57.6332 21.3467 57.8865 20.52H53.5665V18.06H60.7465V21.44C60.4799 22.2667 60.0532 23.0333 59.4665 23.74C58.8799 24.4467 58.1265 25.02 57.2065 25.46C56.2999 25.9 55.2599 26.12 54.0865 26.12C52.6599 26.12 51.4132 25.82 50.3465 25.22C49.2799 24.6067 48.4532 23.7533 47.8665 22.66C47.2932 21.5667 47.0065 20.32 47.0065 18.92C47.0065 17.52 47.2932 16.2733 47.8665 15.18C48.4532 14.0867 49.2732 13.24 50.3265 12.64C51.3932 12.0267 52.6332 11.72 54.0465 11.72Z" fill="#333333"/>
<path d="M66.0809 11.2V26H62.6609V11.2H66.0809Z" fill="#333333"/>
<path d="M73.6621 14.7C74.7688 14.7 75.7555 14.9333 76.6221 15.4C77.5021 15.8533 78.1888 16.5133 78.6821 17.38C79.1888 18.2467 79.4421 19.26 79.4421 20.42C79.4421 21.58 79.1888 22.5933 78.6821 23.46C78.1888 24.3267 77.5021 24.9933 76.6221 25.46C75.7555 25.9133 74.7688 26.14 73.6621 26.14C72.5555 26.14 71.5621 25.9133 70.6821 25.46C69.8021 24.9933 69.1088 24.3267 68.6021 23.46C68.1088 22.5933 67.8621 21.58 67.8621 20.42C67.8621 19.26 68.1088 18.2467 68.6021 17.38C69.1088 16.5133 69.8021 15.8533 70.6821 15.4C71.5621 14.9333 72.5555 14.7 73.6621 14.7ZM73.6621 17.66C73.0088 17.66 72.4555 17.9 72.0021 18.38C71.5621 18.8467 71.3421 19.5267 71.3421 20.42C71.3421 21.3133 71.5621 21.9933 72.0021 22.46C72.4555 22.9267 73.0088 23.16 73.6621 23.16C74.3155 23.16 74.8621 22.9267 75.3021 22.46C75.7421 21.9933 75.9621 21.3133 75.9621 20.42C75.9621 19.5267 75.7421 18.8467 75.3021 18.38C74.8621 17.9 74.3155 17.66 73.6621 17.66Z" fill="#333333"/>
<path d="M88.1756 14.7C89.0956 14.7 89.9156 14.9333 90.6356 15.4C91.3689 15.8533 91.9422 16.5133 92.3556 17.38C92.7822 18.2333 92.9956 19.2467 92.9956 20.42C92.9956 21.58 92.7822 22.5933 92.3556 23.46C91.9422 24.3267 91.3689 24.9933 90.6356 25.46C89.9156 25.9133 89.0956 26.14 88.1756 26.14C87.3222 26.14 86.5889 25.9467 85.9756 25.56C85.3623 25.1733 84.9156 24.6467 84.6356 23.98V26H81.2156V11.2H84.6356V16.86C84.9156 16.1933 85.3623 15.6667 85.9756 15.28C86.5889 14.8933 87.3222 14.7 88.1756 14.7ZM87.0756 17.7C86.3556 17.7 85.7623 17.9467 85.2956 18.44C84.8423 18.92 84.6156 19.58 84.6156 20.42C84.6156 21.2467 84.8423 21.9067 85.2956 22.4C85.7623 22.8933 86.3556 23.14 87.0756 23.14C87.8089 23.14 88.3956 22.9 88.8356 22.42C89.2889 21.94 89.5156 21.2733 89.5156 20.42C89.5156 19.5667 89.2889 18.9 88.8356 18.42C88.3956 17.94 87.8089 17.7 87.0756 17.7Z" fill="#333333"/>
<path d="M99.0103 14.7C99.8636 14.7 100.597 14.8933 101.21 15.28C101.824 15.6667 102.277 16.1933 102.57 16.86V14.84H105.97V26H102.57V23.98C102.277 24.6467 101.824 25.1733 101.21 25.56C100.597 25.9467 99.8636 26.14 99.0103 26.14C98.0903 26.14 97.2636 25.9133 96.5303 25.46C95.8103 24.9933 95.2369 24.3267 94.8103 23.46C94.3969 22.5933 94.1903 21.58 94.1903 20.42C94.1903 19.2467 94.3969 18.2333 94.8103 17.38C95.2369 16.5133 95.8103 15.8533 96.5303 15.4C97.2636 14.9333 98.0903 14.7 99.0103 14.7ZM100.11 17.7C99.3769 17.7 98.7836 17.94 98.3303 18.42C97.8903 18.9 97.6703 19.5667 97.6703 20.42C97.6703 21.2733 97.8903 21.94 98.3303 22.42C98.7836 22.9 99.3769 23.14 100.11 23.14C100.83 23.14 101.417 22.8933 101.87 22.4C102.337 21.9067 102.57 21.2467 102.57 20.42C102.57 19.58 102.337 18.92 101.87 18.44C101.417 17.9467 100.83 17.7 100.11 17.7Z" fill="#333333"/>
<path d="M111.745 11.2V26H108.325V11.2H111.745Z" fill="#333333"/>
<path d="M119.146 14.7C120.586 14.7 121.793 15.1 122.766 15.9C123.74 16.6867 124.353 17.7733 124.606 19.16H120.986C120.88 18.68 120.66 18.3067 120.326 18.04C119.993 17.7733 119.573 17.64 119.066 17.64C118.466 17.64 117.973 17.88 117.586 18.36C117.2 18.8267 117.006 19.5133 117.006 20.42C117.006 21.3267 117.2 22.02 117.586 22.5C117.973 22.9667 118.466 23.2 119.066 23.2C119.573 23.2 119.993 23.0667 120.326 22.8C120.66 22.5333 120.88 22.16 120.986 21.68H124.606C124.353 23.0667 123.74 24.16 122.766 24.96C121.793 25.7467 120.586 26.14 119.146 26.14C118.053 26.14 117.08 25.9133 116.226 25.46C115.386 24.9933 114.726 24.3267 114.246 23.46C113.766 22.5933 113.526 21.58 113.526 20.42C113.526 19.2467 113.76 18.2333 114.226 17.38C114.706 16.5133 115.373 15.8533 116.226 15.4C117.08 14.9333 118.053 14.7 119.146 14.7Z" fill="#333333"/>
<path d="M129.811 11.2V26H126.391V11.2H129.811Z" fill="#333333"/>
<path d="M142.773 20.12C142.773 20.4 142.739 20.7067 142.673 21.04H134.933C134.973 21.88 135.186 22.4867 135.573 22.86C135.959 23.22 136.453 23.4 137.053 23.4C137.559 23.4 137.979 23.2733 138.313 23.02C138.646 22.7667 138.866 22.44 138.973 22.04H142.593C142.446 22.8267 142.126 23.5333 141.633 24.16C141.139 24.7733 140.513 25.26 139.753 25.62C138.993 25.9667 138.146 26.14 137.213 26.14C136.119 26.14 135.146 25.9133 134.293 25.46C133.453 24.9933 132.793 24.3267 132.313 23.46C131.833 22.5933 131.593 21.58 131.593 20.42C131.593 19.2467 131.826 18.2333 132.293 17.38C132.773 16.5133 133.439 15.8533 134.293 15.4C135.146 14.9333 136.119 14.7 137.213 14.7C138.319 14.7 139.293 14.9267 140.133 15.38C140.973 15.8333 141.619 16.4733 142.073 17.3C142.539 18.1133 142.773 19.0533 142.773 20.12ZM139.313 19.6C139.326 18.8667 139.126 18.32 138.713 17.96C138.313 17.5867 137.813 17.4 137.213 17.4C136.586 17.4 136.066 17.5867 135.653 17.96C135.239 18.3333 135.006 18.88 134.953 19.6H139.313Z" fill="#333333"/>
<path d="M148.795 14.7C149.649 14.7 150.382 14.8933 150.995 15.28C151.609 15.6667 152.062 16.1933 152.355 16.86V14.84H155.755V26H152.355V23.98C152.062 24.6467 151.609 25.1733 150.995 25.56C150.382 25.9467 149.649 26.14 148.795 26.14C147.875 26.14 147.049 25.9133 146.315 25.46C145.595 24.9933 145.022 24.3267 144.595 23.46C144.182 22.5933 143.975 21.58 143.975 20.42C143.975 19.2467 144.182 18.2333 144.595 17.38C145.022 16.5133 145.595 15.8533 146.315 15.4C147.049 14.9333 147.875 14.7 148.795 14.7ZM149.895 17.7C149.162 17.7 148.569 17.94 148.115 18.42C147.675 18.9 147.455 19.5667 147.455 20.42C147.455 21.2733 147.675 21.94 148.115 22.42C148.569 22.9 149.162 23.14 149.895 23.14C150.615 23.14 151.202 22.8933 151.655 22.4C152.122 21.9067 152.355 21.2467 152.355 20.42C152.355 19.58 152.122 18.92 151.655 18.44C151.202 17.9467 150.615 17.7 149.895 17.7Z" fill="#333333"/>
<path d="M165.19 14.72C166.47 14.72 167.483 15.1467 168.23 16C168.99 16.8533 169.37 18.0267 169.37 19.52V26H165.95V19.92C165.95 19.1733 165.75 18.5933 165.35 18.18C164.963 17.7533 164.443 17.54 163.79 17.54C163.097 17.54 162.543 17.76 162.13 18.2C161.73 18.64 161.53 19.2667 161.53 20.08V26H158.11V14.84H161.53V16.88C161.85 16.2133 162.323 15.6867 162.95 15.3C163.59 14.9133 164.337 14.72 165.19 14.72Z" fill="#333333"/>
<path d="M19 0C16.5251 0 14.0744 0.487523 11.7878 1.43457C9.50132 2.38172 7.42382 3.76988 5.67372 5.51988C3.92372 7.26998 2.53556 9.34748 1.58841 11.634C0.641362 13.9205 0.153839 16.3713 0.153839 18.8462C0.153839 21.321 0.641362 23.7718 1.58841 26.0583C2.53556 28.3448 3.92372 30.4223 5.67372 32.1724C7.42382 33.9224 9.50132 35.3106 11.7878 36.2577C14.0744 37.2048 16.5251 37.6923 19 37.6923V28.2692C17.7625 28.2692 16.5372 28.0255 15.3939 27.5519C14.2507 27.0784 13.2119 26.3843 12.3369 25.5093C11.4619 24.6343 10.7678 23.5955 10.2943 22.4522C9.82062 21.309 9.57692 20.0836 9.57692 18.8462C9.57692 17.6087 9.82062 16.3833 10.2943 15.2401C10.7678 14.0968 11.4619 13.058 12.3369 12.183C13.2119 11.308 14.2507 10.6139 15.3939 10.1404C16.5372 9.66678 17.7625 9.42308 19 9.42308V0Z" fill="#D0EEE9"/>
<path d="M19 25.1282C22.4696 25.1282 25.2821 22.3157 25.2821 18.8462C25.2821 15.3767 22.4696 12.5642 19 12.5642C15.5305 12.5642 12.718 15.3767 12.718 18.8462C12.718 22.3157 15.5305 25.1282 19 25.1282Z" fill="#D0EEE9"/>
<path d="M0.153839 18.8462C0.153839 21.321 0.641362 23.7718 1.58841 26.0583C2.53556 28.3448 3.92372 30.4223 5.67372 32.1724C7.42382 33.9224 9.50132 35.3106 11.7878 36.2577C14.0744 37.2048 16.5251 37.6923 19 37.6923C21.4749 37.6923 23.9256 37.2048 26.2121 36.2577C28.4987 35.3106 30.5762 33.9224 32.3263 32.1724C34.0763 30.4223 35.4644 28.3448 36.4116 26.0583C37.3586 23.7718 37.8461 21.321 37.8461 18.8462H28.4231C28.4231 20.0836 28.1794 21.309 27.7057 22.4522C27.2322 23.5955 26.5381 24.6343 25.6631 25.5093C24.7881 26.3843 23.7493 27.0784 22.6061 27.5519C21.4628 28.0255 20.2375 28.2692 19 28.2692C17.7625 28.2692 16.5372 28.0255 15.3939 27.5519C14.2507 27.0784 13.2119 26.3843 12.3369 25.5093C11.4619 24.6343 10.7678 23.5955 10.2943 22.4522C9.82062 21.309 9.57692 20.0836 9.57692 18.8462H0.153839Z" fill="#3CA19D"/>
<path d="M25.2821 18.8462C25.2821 17.1801 24.6203 15.5821 23.4422 14.404C22.2641 13.2258 20.6662 12.5642 19 12.5642C17.3339 12.5642 15.7362 13.2258 14.5581 14.404C13.3799 15.5821 12.718 17.1801 12.718 18.8462H25.2821Z" fill="#3CA19D"/>
</svg>
