<svg width="170" height="38" viewBox="0 0 170 38" fill="none" xmlns="http://www.w3.org/2000/svg">
<path d="M56.6039 16.4C56.3505 15.9333 55.9839 15.58 55.5039 15.34C55.0372 15.0867 54.4839 14.96 53.8439 14.96C52.7372 14.96 51.8505 15.3267 51.1839 16.06C50.5172 16.78 50.1839 17.7467 50.1839 18.96C50.1839 20.2533 50.5305 21.2667 51.2239 22C51.9305 22.72 52.8972 23.08 54.1239 23.08C54.9639 23.08 55.6705 22.8667 56.2439 22.44C56.8305 22.0133 57.2572 21.4 57.5239 20.6H53.1839V18.08H60.6239V21.26C60.3705 22.1133 59.9372 22.9067 59.3239 23.64C58.7239 24.3733 57.9572 24.9667 57.0239 25.42C56.0905 25.8733 55.0372 26.1 53.8639 26.1C52.4772 26.1 51.2372 25.8 50.1439 25.2C49.0639 24.5867 48.2172 23.74 47.6039 22.66C47.0039 21.58 46.7039 20.3467 46.7039 18.96C46.7039 17.5733 47.0039 16.34 47.6039 15.26C48.2172 14.1667 49.0639 13.32 50.1439 12.72C51.2239 12.1067 52.4572 11.8 53.8439 11.8C55.5239 11.8 56.9372 12.2067 58.0839 13.02C59.2439 13.8333 60.0105 14.96 60.3839 16.4H56.6039Z" fill="white"/>
<path d="M65.9382 11.2V26H62.5182V11.2H65.9382Z" fill="white"/>
<path d="M73.4967 26.16C72.4033 26.16 71.4167 25.9267 70.5367 25.46C69.67 24.9933 68.9833 24.3267 68.4767 23.46C67.9833 22.5933 67.7367 21.58 67.7367 20.42C67.7367 19.2733 67.99 18.2667 68.4967 17.4C69.0033 16.52 69.6967 15.8467 70.5767 15.38C71.4567 14.9133 72.4433 14.68 73.5367 14.68C74.63 14.68 75.6167 14.9133 76.4967 15.38C77.3767 15.8467 78.07 16.52 78.5767 17.4C79.0833 18.2667 79.3367 19.2733 79.3367 20.42C79.3367 21.5667 79.0767 22.58 78.5567 23.46C78.05 24.3267 77.35 24.9933 76.4567 25.46C75.5767 25.9267 74.59 26.16 73.4967 26.16ZM73.4967 23.2C74.15 23.2 74.7033 22.96 75.1567 22.48C75.6233 22 75.8567 21.3133 75.8567 20.42C75.8567 19.5267 75.63 18.84 75.1767 18.36C74.7367 17.88 74.19 17.64 73.5367 17.64C72.87 17.64 72.3167 17.88 71.8767 18.36C71.4367 18.8267 71.2167 19.5133 71.2167 20.42C71.2167 21.3133 71.43 22 71.8567 22.48C72.2967 22.96 72.8433 23.2 73.4967 23.2Z" fill="white"/>
<path d="M84.571 16.42C84.891 15.9 85.351 15.48 85.951 15.16C86.551 14.84 87.2377 14.68 88.011 14.68C88.931 14.68 89.7644 14.9133 90.511 15.38C91.2577 15.8467 91.8444 16.5133 92.271 17.38C92.711 18.2467 92.931 19.2533 92.931 20.4C92.931 21.5467 92.711 22.56 92.271 23.44C91.8444 24.3067 91.2577 24.98 90.511 25.46C89.7644 25.9267 88.931 26.16 88.011 26.16C87.2244 26.16 86.5377 26.0067 85.951 25.7C85.3644 25.38 84.9044 24.96 84.571 24.44V26H81.151V11.2H84.571V16.42ZM89.451 20.4C89.451 19.5467 89.211 18.88 88.731 18.4C88.2644 17.9067 87.6844 17.66 86.991 17.66C86.311 17.66 85.731 17.9067 85.251 18.4C84.7844 18.8933 84.551 19.5667 84.551 20.42C84.551 21.2733 84.7844 21.9467 85.251 22.44C85.731 22.9333 86.311 23.18 86.991 23.18C87.671 23.18 88.251 22.9333 88.731 22.44C89.211 21.9333 89.451 21.2533 89.451 20.4Z" fill="white"/>
<path d="M94.0453 20.4C94.0453 19.2533 94.2586 18.2467 94.6853 17.38C95.1253 16.5133 95.7186 15.8467 96.4653 15.38C97.2119 14.9133 98.0453 14.68 98.9653 14.68C99.7519 14.68 100.439 14.84 101.025 15.16C101.625 15.48 102.085 15.9 102.405 16.42V14.84H105.825V26H102.405V24.42C102.072 24.94 101.605 25.36 101.005 25.68C100.419 26 99.7319 26.16 98.9453 26.16C98.0386 26.16 97.2119 25.9267 96.4653 25.46C95.7186 24.98 95.1253 24.3067 94.6853 23.44C94.2586 22.56 94.0453 21.5467 94.0453 20.4ZM102.405 20.42C102.405 19.5667 102.165 18.8933 101.685 18.4C101.219 17.9067 100.645 17.66 99.9653 17.66C99.2853 17.66 98.7053 17.9067 98.2253 18.4C97.7586 18.88 97.5253 19.5467 97.5253 20.4C97.5253 21.2533 97.7586 21.9333 98.2253 22.44C98.7053 22.9333 99.2853 23.18 99.9653 23.18C100.645 23.18 101.219 22.9333 101.685 22.44C102.165 21.9467 102.405 21.2733 102.405 20.42Z" fill="white"/>
<path d="M111.719 11.2V26H108.299V11.2H111.719Z" fill="white"/>
<path d="M113.518 20.42C113.518 19.26 113.751 18.2467 114.218 17.38C114.698 16.5133 115.358 15.8467 116.198 15.38C117.051 14.9133 118.025 14.68 119.118 14.68C120.518 14.68 121.685 15.0467 122.618 15.78C123.565 16.5133 124.185 17.5467 124.478 18.88H120.838C120.531 18.0267 119.938 17.6 119.058 17.6C118.431 17.6 117.931 17.8467 117.558 18.34C117.185 18.82 116.998 19.5133 116.998 20.42C116.998 21.3267 117.185 22.0267 117.558 22.52C117.931 23 118.431 23.24 119.058 23.24C119.938 23.24 120.531 22.8133 120.838 21.96H124.478C124.185 23.2667 123.565 24.2933 122.618 25.04C121.671 25.7867 120.505 26.16 119.118 26.16C118.025 26.16 117.051 25.9267 116.198 25.46C115.358 24.9933 114.698 24.3267 114.218 23.46C113.751 22.5933 113.518 21.58 113.518 20.42Z" fill="white"/>
<path d="M129.727 11.2V26H126.307V11.2H129.727Z" fill="white"/>
<path d="M142.726 20.24C142.726 20.56 142.706 20.8933 142.666 21.24H134.926C134.979 21.9333 135.199 22.4667 135.586 22.84C135.986 23.2 136.472 23.38 137.046 23.38C137.899 23.38 138.492 23.02 138.826 22.3H142.466C142.279 23.0333 141.939 23.6933 141.446 24.28C140.966 24.8667 140.359 25.3267 139.626 25.66C138.892 25.9933 138.072 26.16 137.166 26.16C136.072 26.16 135.099 25.9267 134.246 25.46C133.392 24.9933 132.726 24.3267 132.246 23.46C131.766 22.5933 131.526 21.58 131.526 20.42C131.526 19.26 131.759 18.2467 132.226 17.38C132.706 16.5133 133.372 15.8467 134.226 15.38C135.079 14.9133 136.059 14.68 137.166 14.68C138.246 14.68 139.206 14.9067 140.046 15.36C140.886 15.8133 141.539 16.46 142.006 17.3C142.486 18.14 142.726 19.12 142.726 20.24ZM139.226 19.34C139.226 18.7533 139.026 18.2867 138.626 17.94C138.226 17.5933 137.726 17.42 137.126 17.42C136.552 17.42 136.066 17.5867 135.666 17.92C135.279 18.2533 135.039 18.7267 134.946 19.34H139.226Z" fill="white"/>
<path d="M143.85 20.4C143.85 19.2533 144.063 18.2467 144.49 17.38C144.93 16.5133 145.523 15.8467 146.27 15.38C147.017 14.9133 147.85 14.68 148.77 14.68C149.557 14.68 150.243 14.84 150.83 15.16C151.43 15.48 151.89 15.9 152.21 16.42V14.84H155.63V26H152.21V24.42C151.877 24.94 151.41 25.36 150.81 25.68C150.223 26 149.537 26.16 148.75 26.16C147.843 26.16 147.017 25.9267 146.27 25.46C145.523 24.98 144.93 24.3067 144.49 23.44C144.063 22.56 143.85 21.5467 143.85 20.4ZM152.21 20.42C152.21 19.5667 151.97 18.8933 151.49 18.4C151.023 17.9067 150.45 17.66 149.77 17.66C149.09 17.66 148.51 17.9067 148.03 18.4C147.563 18.88 147.33 19.5467 147.33 20.4C147.33 21.2533 147.563 21.9333 148.03 22.44C148.51 22.9333 149.09 23.18 149.77 23.18C150.45 23.18 151.023 22.9333 151.49 22.44C151.97 21.9467 152.21 21.2733 152.21 20.42Z" fill="white"/>
<path d="M164.904 14.72C166.211 14.72 167.251 15.1467 168.024 16C168.811 16.84 169.204 18 169.204 19.48V26H165.804V19.94C165.804 19.1933 165.611 18.6133 165.224 18.2C164.838 17.7867 164.318 17.58 163.664 17.58C163.011 17.58 162.491 17.7867 162.104 18.2C161.718 18.6133 161.524 19.1933 161.524 19.94V26H158.104V14.84H161.524V16.32C161.871 15.8267 162.337 15.44 162.924 15.16C163.511 14.8667 164.171 14.72 164.904 14.72Z" fill="white"/>
<path d="M18.8462 0C16.3713 0 13.9205 0.487523 11.634 1.43457C9.34748 2.38172 7.26998 3.76988 5.51988 5.51988C3.76988 7.26998 2.38172 9.34748 1.43457 11.634C0.487523 13.9205 0 16.3713 0 18.8462C0 21.321 0.487523 23.7718 1.43457 26.0583C2.38172 28.3448 3.76988 30.4223 5.51988 32.1724C7.26998 33.9224 9.34748 35.3106 11.634 36.2577C13.9205 37.2048 16.3713 37.6923 18.8462 37.6923V28.2692C17.6087 28.2692 16.3833 28.0255 15.2401 27.5519C14.0968 27.0784 13.058 26.3843 12.183 25.5093C11.308 24.6343 10.6139 23.5955 10.1404 22.4522C9.66678 21.309 9.42308 20.0836 9.42308 18.8462C9.42308 17.6087 9.66678 16.3833 10.1404 15.2401C10.6139 14.0968 11.308 13.058 12.183 12.183C13.058 11.308 14.0968 10.6139 15.2401 10.1404C16.3833 9.66678 17.6087 9.42308 18.8462 9.42308V0Z" fill="#D0EEE9"/>
<path d="M18.8462 25.1282C22.3157 25.1282 25.1282 22.3157 25.1282 18.8462C25.1282 15.3767 22.3157 12.5642 18.8462 12.5642C15.3767 12.5642 12.5642 15.3767 12.5642 18.8462C12.5642 22.3157 15.3767 25.1282 18.8462 25.1282Z" fill="#D0EEE9"/>
<path d="M0 18.8462C0 21.321 0.487523 23.7718 1.43457 26.0583C2.38172 28.3448 3.76988 30.4223 5.51988 32.1724C7.26998 33.9224 9.34748 35.3106 11.634 36.2577C13.9205 37.2048 16.3713 37.6923 18.8462 37.6923C21.321 37.6923 23.7718 37.2048 26.0583 36.2577C28.3448 35.3106 30.4223 33.9224 32.1724 32.1724C33.9224 30.4223 35.3106 28.3448 36.2577 26.0583C37.2048 23.7718 37.6923 21.321 37.6923 18.8462H28.2692C28.2692 20.0836 28.0255 21.309 27.5519 22.4522C27.0784 23.5955 26.3843 24.6343 25.5093 25.5093C24.6343 26.3843 23.5955 27.0784 22.4522 27.5519C21.309 28.0255 20.0836 28.2692 18.8462 28.2692C17.6087 28.2692 16.3833 28.0255 15.2401 27.5519C14.0968 27.0784 13.058 26.3843 12.183 25.5093C11.308 24.6343 10.6139 23.5955 10.1404 22.4522C9.66678 21.309 9.42308 20.0836 9.42308 18.8462H0Z" fill="#3CA19D"/>
<path d="M25.1282 18.8462C25.1282 17.1801 24.4665 15.5821 23.2884 14.404C22.1103 13.2258 20.5123 12.5642 18.8462 12.5642C17.1801 12.5642 15.5824 13.2258 14.4042 14.404C13.2261 15.5821 12.5642 17.1801 12.5642 18.8462H25.1282Z" fill="#3CA19D"/>
</svg>
