<svg width="164" height="38" viewBox="0 0 164 38" fill="none" xmlns="http://www.w3.org/2000/svg">
<path d="M48.2004 11.72C49.9737 11.72 51.4337 12.1533 52.5804 13.02C53.7271 13.8866 54.4404 15.06 54.7204 16.54H51.1004C50.8604 16.0333 50.4937 15.6333 50.0004 15.34C49.5071 15.0333 48.9137 14.88 48.2204 14.88C47.1404 14.88 46.2737 15.2466 45.6204 15.98C44.9671 16.7 44.6404 17.68 44.6404 18.92C44.6404 20.2666 44.9804 21.3 45.6604 22.02C46.3537 22.74 47.3337 23.1 48.6004 23.1C49.4137 23.1 50.127 22.88 50.7404 22.44C51.3537 21.9866 51.787 21.3466 52.0404 20.52H47.7204V18.06H54.9004V21.44C54.6337 22.2666 54.2071 23.0333 53.6204 23.74C53.0337 24.4466 52.2804 25.02 51.3604 25.46C50.4537 25.9 49.4137 26.12 48.2404 26.12C46.8137 26.12 45.5671 25.82 44.5004 25.22C43.4337 24.6066 42.607 23.7533 42.0204 22.66C41.447 21.5666 41.1604 20.32 41.1604 18.92C41.1604 17.52 41.447 16.2733 42.0204 15.18C42.607 14.0866 43.4271 13.24 44.4804 12.64C45.5471 12.0266 46.787 11.72 48.2004 11.72Z" fill="#333333"/>
<path d="M60.2348 11.2V26H56.8148V11.2H60.2348Z" fill="#333333"/>
<path d="M67.816 14.7C68.9227 14.7 69.9093 14.9333 70.776 15.4C71.656 15.8533 72.3427 16.5133 72.836 17.38C73.3427 18.2466 73.596 19.26 73.596 20.42C73.596 21.58 73.3427 22.5933 72.836 23.46C72.3427 24.3266 71.656 24.9933 70.776 25.46C69.9093 25.9133 68.9227 26.14 67.816 26.14C66.7093 26.14 65.716 25.9133 64.836 25.46C63.956 24.9933 63.2627 24.3266 62.756 23.46C62.2627 22.5933 62.016 21.58 62.016 20.42C62.016 19.26 62.2627 18.2466 62.756 17.38C63.2627 16.5133 63.956 15.8533 64.836 15.4C65.716 14.9333 66.7093 14.7 67.816 14.7ZM67.816 17.66C67.1627 17.66 66.6093 17.9 66.156 18.38C65.716 18.8466 65.496 19.5266 65.496 20.42C65.496 21.3133 65.716 21.9933 66.156 22.46C66.6093 22.9266 67.1627 23.16 67.816 23.16C68.4693 23.16 69.016 22.9266 69.456 22.46C69.896 21.9933 70.116 21.3133 70.116 20.42C70.116 19.5266 69.896 18.8466 69.456 18.38C69.016 17.9 68.4693 17.66 67.816 17.66Z" fill="#333333"/>
<path d="M82.3294 14.7C83.2494 14.7 84.0694 14.9333 84.7894 15.4C85.5228 15.8533 86.0961 16.5133 86.5094 17.38C86.9361 18.2333 87.1494 19.2466 87.1494 20.42C87.1494 21.58 86.9361 22.5933 86.5094 23.46C86.0961 24.3266 85.5228 24.9933 84.7894 25.46C84.0694 25.9133 83.2494 26.14 82.3294 26.14C81.4761 26.14 80.7428 25.9466 80.1294 25.56C79.5161 25.1733 79.0694 24.6466 78.7894 23.98V26H75.3694V11.2H78.7894V16.86C79.0694 16.1933 79.5161 15.6666 80.1294 15.28C80.7428 14.8933 81.4761 14.7 82.3294 14.7ZM81.2294 17.7C80.5094 17.7 79.9161 17.9466 79.4494 18.44C78.9961 18.92 78.7694 19.58 78.7694 20.42C78.7694 21.2466 78.9961 21.9066 79.4494 22.4C79.9161 22.8933 80.5094 23.14 81.2294 23.14C81.9628 23.14 82.5494 22.9 82.9894 22.42C83.4428 21.94 83.6694 21.2733 83.6694 20.42C83.6694 19.5666 83.4428 18.9 82.9894 18.42C82.5494 17.94 81.9628 17.7 81.2294 17.7Z" fill="#333333"/>
<path d="M93.1641 14.7C94.0175 14.7 94.7508 14.8933 95.3641 15.28C95.9775 15.6666 96.4308 16.1933 96.7241 16.86V14.84H100.124V26H96.7241V23.98C96.4308 24.6466 95.9775 25.1733 95.3641 25.56C94.7508 25.9466 94.0175 26.14 93.1641 26.14C92.2441 26.14 91.4175 25.9133 90.6841 25.46C89.9641 24.9933 89.3908 24.3266 88.9641 23.46C88.5508 22.5933 88.3441 21.58 88.3441 20.42C88.3441 19.2466 88.5508 18.2333 88.9641 17.38C89.3908 16.5133 89.9641 15.8533 90.6841 15.4C91.4175 14.9333 92.2441 14.7 93.1641 14.7ZM94.2641 17.7C93.5308 17.7 92.9375 17.94 92.4841 18.42C92.0441 18.9 91.8241 19.5666 91.8241 20.42C91.8241 21.2733 92.0441 21.94 92.4841 22.42C92.9375 22.9 93.5308 23.14 94.2641 23.14C94.9841 23.14 95.5708 22.8933 96.0241 22.4C96.4908 21.9066 96.7241 21.2466 96.7241 20.42C96.7241 19.58 96.4908 18.92 96.0241 18.44C95.5708 17.9466 94.9841 17.7 94.2641 17.7Z" fill="#333333"/>
<path d="M105.899 11.2V26H102.479V11.2H105.899Z" fill="#333333"/>
<path d="M113.3 14.7C114.74 14.7 115.947 15.1 116.92 15.9C117.893 16.6866 118.507 17.7733 118.76 19.16H115.14C115.033 18.68 114.813 18.3066 114.48 18.04C114.147 17.7733 113.727 17.64 113.22 17.64C112.62 17.64 112.127 17.88 111.74 18.36C111.353 18.8266 111.16 19.5133 111.16 20.42C111.16 21.3266 111.353 22.02 111.74 22.5C112.127 22.9666 112.62 23.2 113.22 23.2C113.727 23.2 114.147 23.0666 114.48 22.8C114.813 22.5333 115.033 22.16 115.14 21.68H118.76C118.507 23.0666 117.893 24.16 116.92 24.96C115.947 25.7466 114.74 26.14 113.3 26.14C112.207 26.14 111.233 25.9133 110.38 25.46C109.54 24.9933 108.88 24.3266 108.4 23.46C107.92 22.5933 107.68 21.58 107.68 20.42C107.68 19.2466 107.913 18.2333 108.38 17.38C108.86 16.5133 109.527 15.8533 110.38 15.4C111.233 14.9333 112.207 14.7 113.3 14.7Z" fill="#333333"/>
<path d="M123.965 11.2V26H120.545V11.2H123.965Z" fill="#333333"/>
<path d="M136.926 20.12C136.926 20.4 136.893 20.7066 136.826 21.04H129.086C129.126 21.88 129.34 22.4866 129.726 22.86C130.113 23.22 130.606 23.4 131.206 23.4C131.713 23.4 132.133 23.2733 132.466 23.02C132.8 22.7666 133.02 22.44 133.126 22.04H136.746C136.6 22.8266 136.28 23.5333 135.786 24.16C135.293 24.7733 134.666 25.26 133.906 25.62C133.146 25.9666 132.3 26.14 131.366 26.14C130.273 26.14 129.3 25.9133 128.446 25.46C127.606 24.9933 126.946 24.3266 126.466 23.46C125.986 22.5933 125.746 21.58 125.746 20.42C125.746 19.2466 125.98 18.2333 126.446 17.38C126.926 16.5133 127.593 15.8533 128.446 15.4C129.3 14.9333 130.273 14.7 131.366 14.7C132.473 14.7 133.446 14.9266 134.286 15.38C135.126 15.8333 135.773 16.4733 136.226 17.3C136.693 18.1133 136.926 19.0533 136.926 20.12ZM133.466 19.6C133.48 18.8666 133.28 18.32 132.866 17.96C132.466 17.5866 131.966 17.4 131.366 17.4C130.74 17.4 130.22 17.5866 129.806 17.96C129.393 18.3333 129.16 18.88 129.106 19.6H133.466Z" fill="#333333"/>
<path d="M142.949 14.7C143.803 14.7 144.536 14.8933 145.149 15.28C145.763 15.6666 146.216 16.1933 146.509 16.86V14.84H149.909V26H146.509V23.98C146.216 24.6466 145.763 25.1733 145.149 25.56C144.536 25.9466 143.803 26.14 142.949 26.14C142.029 26.14 141.203 25.9133 140.469 25.46C139.749 24.9933 139.176 24.3266 138.749 23.46C138.336 22.5933 138.129 21.58 138.129 20.42C138.129 19.2466 138.336 18.2333 138.749 17.38C139.176 16.5133 139.749 15.8533 140.469 15.4C141.203 14.9333 142.029 14.7 142.949 14.7ZM144.049 17.7C143.316 17.7 142.723 17.94 142.269 18.42C141.829 18.9 141.609 19.5666 141.609 20.42C141.609 21.2733 141.829 21.94 142.269 22.42C142.723 22.9 143.316 23.14 144.049 23.14C144.769 23.14 145.356 22.8933 145.809 22.4C146.276 21.9066 146.509 21.2466 146.509 20.42C146.509 19.58 146.276 18.92 145.809 18.44C145.356 17.9466 144.769 17.7 144.049 17.7Z" fill="#333333"/>
<path d="M159.344 14.72C160.624 14.72 161.637 15.1466 162.384 16C163.144 16.8533 163.524 18.0266 163.524 19.52V26H160.104V19.92C160.104 19.1733 159.904 18.5933 159.504 18.18C159.117 17.7533 158.597 17.54 157.944 17.54C157.251 17.54 156.697 17.76 156.284 18.2C155.884 18.64 155.684 19.2666 155.684 20.08V26H152.264V14.84H155.684V16.88C156.004 16.2133 156.477 15.6866 157.104 15.3C157.744 14.9133 158.491 14.72 159.344 14.72Z" fill="#333333"/>
<path d="M19 0.153809C16.5251 0.153809 14.0744 0.641331 11.7878 1.58838C9.50132 2.53553 7.42382 3.92369 5.67372 5.67369C3.92372 7.42379 2.53556 9.50129 1.58841 11.7878C0.641362 14.0743 0.153839 16.5251 0.153839 19C0.153839 21.4748 0.641362 23.9256 1.58841 26.2121C2.53556 28.4986 3.92372 30.5761 5.67372 32.3262C7.42382 34.0762 9.50132 35.4644 11.7878 36.4115C14.0744 37.3586 16.5251 37.8461 19 37.8461V28.423C17.7625 28.423 16.5372 28.1793 15.3939 27.7057C14.2507 27.2322 13.2119 26.5381 12.3369 25.6631C11.4619 24.7881 10.7678 23.7493 10.2943 22.606C9.82062 21.4628 9.57692 20.2375 9.57692 19C9.57692 17.7625 9.82062 16.5371 10.2943 15.3939C10.7678 14.2506 11.4619 13.2118 12.3369 12.3368C13.2119 11.4618 14.2507 10.7677 15.3939 10.2942C16.5372 9.82059 17.7625 9.57689 19 9.57689V0.153809Z" fill="#D0EEE9"/>
<path d="M19 25.282C22.4696 25.282 25.2821 22.4695 25.2821 19C25.2821 15.5305 22.4696 12.718 19 12.718C15.5305 12.718 12.718 15.5305 12.718 19C12.718 22.4695 15.5305 25.282 19 25.282Z" fill="#D0EEE9"/>
<path d="M0.153839 19C0.153839 21.4748 0.641362 23.9256 1.58841 26.2121C2.53556 28.4986 3.92372 30.5761 5.67372 32.3262C7.42382 34.0762 9.50132 35.4644 11.7878 36.4115C14.0744 37.3586 16.5251 37.8461 19 37.8461C21.4749 37.8461 23.9256 37.3586 26.2121 36.4115C28.4987 35.4644 30.5762 34.0762 32.3263 32.3262C34.0763 30.5761 35.4644 28.4986 36.4116 26.2121C37.3586 23.9256 37.8461 21.4748 37.8461 19H28.4231C28.4231 20.2375 28.1794 21.4628 27.7057 22.606C27.2322 23.7493 26.5381 24.7881 25.6631 25.6631C24.7881 26.5381 23.7493 27.2322 22.6061 27.7057C21.4628 28.1793 20.2375 28.423 19 28.423C17.7625 28.423 16.5372 28.1793 15.3939 27.7057C14.2507 27.2322 13.2119 26.5381 12.3369 25.6631C11.4619 24.7881 10.7678 23.7493 10.2943 22.606C9.82062 21.4628 9.57692 20.2375 9.57692 19H0.153839Z" fill="#3CA19D"/>
<path d="M25.2821 19C25.2821 17.3339 24.6203 15.7359 23.4422 14.5578C22.2641 13.3796 20.6662 12.718 19 12.718C17.3339 12.718 15.7362 13.3796 14.5581 14.5578C13.3799 15.7359 12.718 17.3339 12.718 19H25.2821Z" fill="#3CA19D"/>
</svg>
