<svg width="68" height="68" viewBox="0 0 68 68" fill="none" xmlns="http://www.w3.org/2000/svg">
<path d="M9.1537 0C5.54863 0 2.6152 2.93343 2.6152 6.53849C2.6152 10.1436 5.5485 13.077 9.1537 13.077C12.7588 13.077 15.6922 10.1437 15.6922 6.53849C15.6922 2.93343 12.7588 0 9.1537 0ZM9.1537 10.4615C6.99045 10.4615 5.23068 8.70174 5.23068 6.53849C5.23068 4.37524 6.99045 2.61548 9.1537 2.61548C11.3171 2.61548 13.0768 4.37524 13.0768 6.53849C13.0768 8.70174 11.3171 10.4615 9.1537 10.4615Z" fill="#3CA19D"/>
<path d="M54.9228 47.077C49.1543 47.077 44.4613 51.7702 44.4613 57.5385C44.4613 63.307 49.1543 68 54.9228 68C60.6912 68 65.3843 63.307 65.3843 57.5385C65.3844 51.7701 60.6912 47.077 54.9228 47.077ZM54.9228 65.3847C50.5962 65.3847 47.0766 61.8652 47.0766 57.5385C47.0766 53.2119 50.5962 49.6924 54.9228 49.6924C59.2494 49.6924 62.769 53.2119 62.769 57.5385C62.769 61.8652 59.2496 65.3847 54.9228 65.3847Z" fill="#3CA19D"/>
<path d="M37.923 3.92297C25.6647 3.92297 15.6922 13.8955 15.6922 26.1538C15.6922 38.4121 25.6647 48.3846 37.923 48.3846C50.1813 48.3846 60.1538 38.4123 60.1538 26.1538C60.1538 13.8953 50.1815 3.92297 37.923 3.92297ZM37.923 45.7692C27.1065 45.7692 18.3077 36.9703 18.3077 26.1538C18.3077 15.3373 27.1065 6.53845 37.923 6.53845C48.7395 6.53845 57.5383 15.3373 57.5383 26.1538C57.5385 36.9705 48.7396 45.7692 37.923 45.7692Z" fill="#3CA19D"/>
<path d="M37.9229 11.7692C29.9912 11.7692 23.5382 18.2221 23.5382 26.1538C23.5382 26.8766 24.1231 27.4615 24.8459 27.4615C25.5687 27.4615 26.1536 26.8766 26.1536 26.1538C26.1536 19.6639 31.4329 14.3846 37.9228 14.3846C38.6455 14.3846 39.2304 13.7997 39.2304 13.077C39.2307 12.3541 38.6458 11.7692 37.9229 11.7692Z" fill="#3CA19D"/>
<path d="M31.5581 50.2197C30.9234 49.871 30.129 50.1048 29.7831 50.7382C27.4844 54.932 23.0863 57.5384 18.3075 57.5384C11.0973 57.5384 5.23055 51.6717 5.23055 44.4614C5.23055 39.2383 8.32986 34.5223 13.1277 32.4496C13.7906 32.1635 14.0958 31.3935 13.8097 30.7308C13.5236 30.0667 12.7511 29.764 12.0908 30.0488C6.33396 32.5365 2.6152 38.1938 2.6152 44.4614C2.6152 53.1147 9.65427 60.1538 18.3075 60.1538C24.0415 60.1538 29.3182 57.0276 32.0766 51.9947C32.424 51.3613 32.1915 50.567 31.5581 50.2197Z" fill="#3CA19D"/>
<path d="M18.3077 52.3076C13.981 52.3076 10.4615 48.7881 10.4615 44.4615C10.4615 43.7387 9.8766 43.1538 9.15383 43.1538C8.43107 43.1538 7.84616 43.7387 7.84616 44.4615C7.84616 50.2299 12.5392 54.923 18.3077 54.923C19.0304 54.923 19.6153 54.3381 19.6153 53.6153C19.6153 52.8925 19.0304 52.3076 18.3077 52.3076Z" fill="#3CA19D"/>
</svg>
