<svg width="62" height="62" viewBox="0 0 62 62" fill="none" xmlns="http://www.w3.org/2000/svg">
<g clip-path="url(#clip0_1_306)">
<path d="M62.0002 39.78C62.0002 34.6157 58.9955 32.2249 53.4359 31.1061C52.9497 31.0083 52.444 30.9183 51.8491 30.8213C51.6213 30.7842 51.392 30.7479 51.0852 30.7C50.7125 30.642 50.5205 30.612 50.3509 30.5854C49.5558 30.4601 49.0377 30.3693 48.5667 30.2677C47.6215 30.064 45.7331 29.067 43.1535 27.4328C43.6321 26.3039 43.412 24.9493 42.492 24.0292C41.2814 22.8186 39.3179 22.8186 38.1074 24.0292L38.0994 24.0372C37.6161 23.6981 37.1219 23.3479 36.6182 22.9882C37.4898 21.7766 37.3814 20.0775 36.2919 18.988C35.0814 17.7774 33.1179 17.7774 31.9073 18.988L31.5875 19.3079C30.2666 18.3208 29.0206 17.3753 27.9422 16.5459C26.9307 15.7676 25.5021 15.8622 24.5997 16.7645L22.4773 18.8869C21.4414 19.9228 21.4414 21.6031 22.4773 22.6391L23.0549 23.2167C23.2607 23.4226 23.1995 23.7713 22.9582 23.875C18.1149 25.9553 14.316 25.1842 11.3641 22.6417C10.7456 22.1089 10.2182 21.5375 9.78339 20.968C9.528 20.6335 9.36453 20.382 9.29284 20.2552C9.14147 19.9874 8.8787 19.8008 8.57585 19.7464C6.11016 19.3036 4.55714 22.979 2.89878 30.0279C2.40411 32.1303 1.95437 34.3788 1.55731 36.6265C1.41842 37.4127 1.29611 38.143 1.19125 38.7989C1.13918 39.125 1.10067 39.3733 1.07621 39.5365L0.0560002 42.5081C-0.0218625 42.7349 -0.0184719 42.9818 0.0658087 43.2064C0.263674 43.7341 0.847584 44.3305 1.95086 44.8349C3.5396 45.5612 5.97296 45.9798 9.44469 45.9798H54.7663C55.0652 45.9632 55.4465 45.9185 55.9283 45.8269C56.7282 45.6747 57.5296 45.4401 58.2875 45.1018C60.5658 44.0849 62.0008 42.3406 61.9993 39.7956C61.9995 39.7905 62.0002 39.7853 62.0002 39.78ZM5.23962 29.166C7.01981 30.3206 9.05622 31.3041 11.3667 32.1611V33.5799C11.3667 33.8158 11.3939 34.0451 11.4438 34.2659C11.7559 35.6481 12.99 36.6801 14.4668 36.6801H20.6667C20.6695 36.6801 20.6722 36.6799 20.675 36.6799H21.2102C22.1862 36.6799 23.0346 36.1328 23.4653 35.3286C24.3795 35.5167 25.6917 35.7874 26.1686 35.8888C27.5907 36.191 28.6765 36.4438 29.6278 36.701C30.877 37.0382 31.9638 37.7591 32.7742 38.7466H3.29402C3.38278 38.2025 3.48281 37.6123 3.59361 36.9859C3.98461 34.7732 4.42733 32.561 4.91219 30.5004C4.99404 30.1526 5.07663 29.8144 5.15958 29.4813C5.1861 29.3753 5.21274 29.2701 5.23962 29.166ZM13.4334 33.5801V31.5135C13.4334 30.9424 13.8956 30.4802 14.4667 30.4802H20.6666C21.2377 30.4802 21.6999 30.9424 21.6999 31.5135V33.5801C21.6999 34.1499 21.2399 34.611 20.6707 34.6133H14.4665C13.9674 34.6133 13.5508 34.2592 13.4543 33.7886C13.4406 33.7211 13.4334 33.6515 13.4334 33.5801ZM41.0308 25.4905C41.4343 25.894 41.4343 26.549 41.0308 26.9525L40.9816 27.0017C40.9809 27.0024 40.9802 27.003 40.9794 27.0037L38.8384 29.1438C38.4347 29.5474 37.7808 29.5474 37.3773 29.1439C37.0999 28.8665 37.0132 28.4708 37.1172 28.1195C37.1645 27.9599 37.2511 27.8094 37.3772 27.6834L37.7999 27.2606L38.949 26.1115C38.9505 26.1099 38.9519 26.108 38.9536 26.1064L39.5691 25.4907C39.9723 25.0871 40.6273 25.0871 41.0308 25.4905ZM34.8308 20.4493C35.2343 20.8528 35.2343 21.5078 34.8308 21.9113L34.3344 22.4075C34.3329 22.409 34.3312 22.4102 34.3297 22.4116L33.5073 23.2341L32.6383 24.1027C32.2347 24.5063 31.5807 24.5063 31.1772 24.1028C31.1015 24.0271 31.0401 23.9427 30.9928 23.8528C30.8769 23.632 30.8474 23.3782 30.9021 23.1398C30.9441 22.9574 31.0351 22.784 31.1772 22.6418L33.3691 20.449C33.7724 20.0458 34.4273 20.0459 34.8308 20.4493ZM7.92413 21.9448C8.39808 22.6141 9.09182 23.4121 10.0156 24.2078C13.5396 27.2429 18.1672 28.1823 23.7741 25.7741C25.3742 25.0866 25.7428 22.9838 24.517 21.7562L23.9389 21.1779C23.71 20.9491 23.71 20.5772 23.9389 20.3485L26.0613 18.2261C26.2303 18.057 26.4944 18.0396 26.6825 18.1842C27.7031 18.9691 28.8712 19.8562 30.1114 20.7848L29.716 21.1801C29.3376 21.5585 29.0776 22.0103 28.9357 22.4899C28.711 23.2486 28.7832 24.0763 29.1512 24.7911C29.2946 25.0697 29.4825 25.3313 29.716 25.5648C30.9266 26.7753 32.889 26.7753 34.0995 25.5648L34.9765 24.6878L35.1705 24.494C35.6618 24.8457 36.1438 25.1881 36.6166 25.5211L36.3665 25.7712L35.9159 26.2218C35.6511 26.4867 35.4442 26.7876 35.2952 27.1087C34.7633 28.2552 34.9701 29.66 35.9158 30.6057C37.1264 31.8163 39.0888 31.8163 40.2994 30.6057L41.8511 29.0548C44.7463 30.9021 46.8411 32.0102 48.1313 32.2881C48.6491 32.3997 49.1987 32.4961 50.0293 32.627C50.201 32.6542 50.3954 32.6843 50.7668 32.7421C51.0693 32.7893 51.2945 32.8249 51.5168 32.8611C52.0885 32.9542 52.5701 33.04 53.0282 33.1321C57.306 33.9931 59.5097 35.5132 59.8779 38.7467H35.2541C34.1665 36.7679 32.3576 35.2974 30.1666 34.7058C29.1728 34.4372 28.0537 34.1767 26.598 33.8673C26.0952 33.7605 24.6836 33.4694 23.7667 33.2807V31.5135C23.7667 29.801 22.3792 28.4135 20.6667 28.4135H14.4668C13.2701 28.4135 12.2329 29.0914 11.7161 30.0838C9.45244 29.2184 7.49413 28.226 5.82038 27.0657C6.62904 24.3489 7.42522 22.4905 7.92413 21.9448ZM57.4453 43.2147C56.8471 43.4817 56.1952 43.6724 55.5419 43.7967C55.1518 43.871 54.8551 43.9057 54.7022 43.9153L9.44481 43.9132C6.24651 43.9132 4.09638 43.5433 2.81026 42.9554C2.55245 42.8376 2.35374 42.7216 2.2054 42.6127L2.82321 40.8134H59.8002C59.4971 41.8887 58.6839 42.6619 57.4453 43.2147Z" fill="white"/>
<path d="M16.5333 33.5802H18.6C19.1707 33.5802 19.6333 33.1176 19.6333 32.5469C19.6333 31.9762 19.1706 31.5136 18.6 31.5136H16.5333C15.9626 31.5136 15.5 31.9762 15.5 32.5469C15.5 33.1176 15.9626 33.5802 16.5333 33.5802Z" fill="white"/>
<g clip-path="url(#clip1_1_306)">
<path d="M8.71875 4L10.0487 7.54504L13.5937 8.875L10.0487 10.205L8.71875 13.75L7.38879 10.205L3.84375 8.875L7.38879 7.54504L8.71875 4Z" fill="white"/>
<path d="M11.7656 12.5312L12.3641 14.1672L14 14.7656L12.3641 15.3641L11.7656 17L11.1672 15.3641L9.53125 14.7656L11.1672 14.1672L11.7656 12.5312Z" fill="white"/>
<path d="M3.84375 10.5L4.63365 12.5538L6.6875 13.3437L4.63365 14.1337L3.84375 16.1875L3.05385 14.1337L1 13.3438L3.05385 12.5538L3.84375 10.5Z" fill="white"/>
</g>
</g>
<defs>
<clipPath id="clip0_1_306">
<rect width="62" height="62" fill="white"/>
</clipPath>
<clipPath id="clip1_1_306">
<rect width="13" height="13" fill="white" transform="translate(14 17) rotate(180)"/>
</clipPath>
</defs>
</svg>
