<svg width="54" height="54" viewBox="0 0 54 54" fill="none" xmlns="http://www.w3.org/2000/svg">
<path d="M20.8912 23.7098C19.1636 23.7114 17.4744 23.2007 16.0372 22.2421C14.6 21.2836 13.4793 19.9203 12.8171 18.3247C12.1548 16.7291 11.9807 14.973 12.3167 13.2784C12.6527 11.5839 13.4837 10.0271 14.7047 8.80491C15.9257 7.58276 17.4817 6.7502 19.1759 6.41256C20.8702 6.07492 22.6265 6.24736 24.2227 6.90808C25.8189 7.5688 27.1833 8.6881 28.1432 10.1244C29.1031 11.5607 29.6155 13.2494 29.6155 14.977C29.6133 17.2909 28.6937 19.5095 27.0583 21.1465C25.4229 22.7835 23.2051 23.7053 20.8912 23.7098ZM20.8912 9.62758C19.8308 9.62591 18.7937 9.93893 17.9113 10.527C17.029 11.1151 16.3409 11.9518 15.9344 12.9311C15.5278 13.9105 15.421 14.9885 15.6275 16.0286C15.8339 17.0687 16.3444 18.0241 17.0942 18.7739C17.844 19.5237 18.7994 20.0342 19.8395 20.2407C20.8796 20.4471 21.9576 20.3403 22.937 19.9337C23.9163 19.5272 24.753 18.8391 25.3411 17.9568C25.9292 17.0744 26.2422 16.0373 26.2405 14.977C26.2383 13.5589 25.674 12.1996 24.6713 11.1968C23.6686 10.1941 22.3092 9.62981 20.8912 9.62758Z" fill="white"/>
<path d="M20.8912 47.7477C15.9316 47.7624 11.0922 46.2221 7.05365 43.3433C6.85765 43.2038 6.69376 43.0239 6.57298 42.8158C6.45219 42.6077 6.3773 42.3762 6.35334 42.1368C6.35334 41.9005 6.35334 41.6811 6.35334 41.4449C6.3066 39.5035 6.64861 37.5724 7.35926 35.7651C8.06991 33.9578 9.13483 32.311 10.4914 30.9214C11.8479 29.5318 13.4687 28.4275 15.2583 27.6736C17.0479 26.9196 18.9703 26.5312 20.9122 26.5312C22.8542 26.5312 24.7766 26.9196 26.5662 27.6736C28.3558 28.4275 29.9766 29.5318 31.3331 30.9214C32.6897 32.311 33.7546 33.9578 34.4652 35.7651C35.1759 37.5724 35.5179 39.5035 35.4712 41.4449C35.4838 41.6725 35.4838 41.9007 35.4712 42.1283C35.4484 42.3692 35.374 42.6024 35.2532 42.812C35.1324 43.0217 34.9679 43.2029 34.7708 43.3433C34.1971 43.7483 33.598 44.1364 32.999 44.4908C32.8074 44.6229 32.5905 44.7139 32.3621 44.7581C32.1336 44.8024 31.8985 44.7989 31.6714 44.7479C31.4444 44.6969 31.2303 44.5995 31.0427 44.4618C30.8551 44.3241 30.698 44.1491 30.5813 43.9478C30.4646 43.7464 30.3908 43.5231 30.3645 43.2919C30.3383 43.0607 30.3601 42.8266 30.4287 42.6042C30.4972 42.3818 30.6111 42.176 30.763 41.9997C30.9149 41.8235 31.1017 41.6805 31.3115 41.5799C31.5899 41.4111 31.8683 41.2424 32.1552 41.0652C32.0752 38.1544 30.8627 35.3897 28.7756 33.3592C26.6886 31.3287 23.8916 30.1926 20.9797 30.1926C18.0679 30.1926 15.2709 31.3287 13.1838 33.3592C11.0968 35.3897 9.88426 38.1544 9.80428 41.0652C13.1288 43.2339 17.0147 44.3836 20.984 44.3727C22.0204 44.3733 23.0554 44.2972 24.0805 44.1449C24.5281 44.0766 24.9844 44.189 25.3491 44.4572C25.7139 44.7254 25.9571 45.1275 26.0254 45.575C26.0936 46.0226 25.9813 46.4789 25.7131 46.8437C25.4449 47.2084 25.0428 47.4516 24.5952 47.5199C23.3685 47.6934 22.1299 47.7696 20.8912 47.7477Z" fill="white"/>
<path d="M40.3735 25.7678C39.926 25.7678 39.4968 25.59 39.1803 25.2735C38.8638 24.957 38.686 24.5278 38.686 24.0803V12.8584C38.686 12.4108 38.8638 11.9816 39.1803 11.6652C39.4968 11.3487 39.926 11.1709 40.3735 11.1709C40.8211 11.1709 41.2503 11.3487 41.5668 11.6652C41.8832 11.9816 42.061 12.4108 42.061 12.8584V24.0803C42.061 24.5278 41.8832 24.957 41.5668 25.2735C41.2503 25.59 40.8211 25.7678 40.3735 25.7678Z" fill="white"/>
<path d="M45.9846 20.1572H34.7627C34.3151 20.1572 33.8859 19.9794 33.5695 19.663C33.253 19.3465 33.0752 18.9173 33.0752 18.4697C33.0752 18.0222 33.253 17.593 33.5695 17.2765C33.8859 16.96 34.3151 16.7822 34.7627 16.7822H45.9846C46.4321 16.7822 46.8613 16.96 47.1778 17.2765C47.4943 17.593 47.6721 18.0222 47.6721 18.4697C47.6721 18.9173 47.4943 19.3465 47.1778 19.663C46.8613 19.9794 46.4321 20.1572 45.9846 20.1572Z" fill="white"/>
</svg>
