<svg width="33" height="32" viewBox="0 0 33 32" fill="none" xmlns="http://www.w3.org/2000/svg">
<g clip-path="url(#clip0_1_137)">
<path d="M16.073 0C7.21114 0 0.0010376 7.16894 0.0010376 15.9784C0.0010376 24.7879 7.21114 31.9561 16.073 31.9561C24.9348 31.9561 32.1449 24.7871 32.1449 15.9776C32.1449 7.16816 24.9348 0 16.073 0ZM16.073 28.99C8.85434 28.99 2.98193 23.153 2.98193 15.9776C2.98193 8.80087 8.85434 2.96393 16.073 2.96393C23.2916 2.96393 29.164 8.801 29.164 15.9776C29.1634 23.1537 23.2916 28.99 16.073 28.99Z" fill="white"/>
<path d="M14.9267 23.5689C14.1272 23.5391 13.4256 23.4539 12.8239 23.3134C12.2208 23.1708 11.7511 23.0069 11.4142 22.8232L12.2351 20.4326C12.487 20.5859 12.8411 20.732 13.2965 20.8711C13.7519 21.0095 14.2959 21.1088 14.9269 21.1649V16.9188C14.4922 16.725 14.061 16.5086 13.6334 16.2709C13.2058 16.0339 12.8239 15.7493 12.487 15.4138C12.1502 15.0795 11.8796 14.6801 11.6769 14.2125C11.4742 13.7449 11.3722 13.1922 11.3722 12.5499C11.3722 11.3507 11.6912 10.4204 12.3294 9.75766C12.9668 9.09636 13.8334 8.6678 14.927 8.47263V6.5679H17.1148V8.38796C17.7315 8.4284 18.2719 8.51137 18.7344 8.63701C19.197 8.76042 19.6246 8.90667 20.0171 9.07131L19.2597 11.3768C19.0213 11.2662 18.7201 11.1548 18.3554 11.0426C17.9907 10.9319 17.5773 10.8488 17.114 10.7921V14.7218C17.5487 14.9176 17.987 15.1369 18.4289 15.3803C18.87 15.6258 19.2626 15.9146 19.6066 16.2481C19.9499 16.5844 20.2305 16.9768 20.4482 17.431C20.6651 17.8851 20.7745 18.423 20.7745 19.0509C20.7745 20.3345 20.4482 21.3336 19.7958 22.0518C19.1441 22.7698 18.2504 23.2318 17.1148 23.4404V25.3861H14.927L14.9267 23.5689ZM14.1058 12.3078C14.1058 12.7285 14.27 13.0798 14.5998 13.3586C14.9296 13.6389 15.34 13.9001 15.8311 14.1385V10.7283C15.1715 10.758 14.7182 10.9185 14.4741 11.2136C14.2287 11.5073 14.1058 11.8727 14.1058 12.3078ZM18.0396 19.3439C18.0396 18.9018 17.8612 18.54 17.5035 18.259C17.1459 17.9773 16.7148 17.7182 16.2094 17.4834V21.1648C16.8269 21.0946 17.2858 20.9023 17.5878 20.5858C17.889 20.2685 18.0396 19.8548 18.0396 19.3439Z" fill="white"/>
</g>
<defs>
<clipPath id="clip0_1_137">
<rect width="32.146" height="31.9561" rx="8" fill="white"/>
</clipPath>
</defs>
</svg>
