<svg width="200" height="200" viewBox="0 0 200 200" fill="none" xmlns="http://www.w3.org/2000/svg">
<circle cx="100" cy="100" r="100" fill="#D9D9D9"/>
<path d="M76.3944 86.52C75.1151 84.1633 73.2634 82.379 70.8394 81.167C68.4827 79.8877 65.6884 79.248 62.4564 79.248C56.8677 79.248 52.3901 81.0997 49.0234 84.803C45.6567 88.439 43.9734 93.3207 43.9734 99.448C43.9734 105.979 45.7241 111.097 49.2254 114.8C52.7941 118.436 57.6757 120.254 63.8704 120.254C68.1124 120.254 71.6811 119.177 74.5764 117.022C77.5391 114.867 79.6937 111.77 81.0404 107.73H59.1234V95.004H96.6954V111.063C95.4161 115.372 93.2277 119.379 90.1304 123.082C87.1004 126.785 83.2287 129.782 78.5154 132.071C73.8021 134.36 68.4827 135.505 62.5574 135.505C55.5547 135.505 49.2927 133.99 43.7714 130.96C38.3174 127.863 34.0417 123.587 30.9444 118.133C27.9144 112.679 26.3994 106.451 26.3994 99.448C26.3994 92.4453 27.9144 86.217 30.9444 80.763C34.0417 75.2417 38.3174 70.966 43.7714 67.936C49.2254 64.8387 55.4537 63.29 62.4564 63.29C70.9404 63.29 78.0777 65.3437 83.8684 69.451C89.7264 73.5583 93.5981 79.248 95.4834 86.52H76.3944ZM103.333 99.448C103.333 92.4453 104.848 86.217 107.878 80.763C110.908 75.2417 115.116 70.966 120.503 67.936C125.957 64.8387 132.118 63.29 138.986 63.29C147.403 63.29 154.607 65.512 160.6 69.956C166.593 74.4 170.599 80.46 172.619 88.136H153.631C152.217 85.1733 150.197 82.9177 147.571 81.369C145.012 79.8203 142.083 79.046 138.784 79.046C133.465 79.046 129.155 80.8977 125.856 84.601C122.557 88.3043 120.907 93.2533 120.907 99.448C120.907 105.643 122.557 110.592 125.856 114.295C129.155 117.998 133.465 119.85 138.784 119.85C142.083 119.85 145.012 119.076 147.571 117.527C150.197 115.978 152.217 113.723 153.631 110.76H172.619C170.599 118.436 166.593 124.496 160.6 128.94C154.607 133.317 147.403 135.505 138.986 135.505C132.118 135.505 125.957 133.99 120.503 130.96C115.116 127.863 110.908 123.587 107.878 118.133C104.848 112.679 103.333 106.451 103.333 99.448Z" fill="black"/>
</svg>
