<svg width="123" height="16" viewBox="0 0 123 16" fill="none" xmlns="http://www.w3.org/2000/svg">
<path d="M7.20039 0.719999C8.97372 0.719999 10.4337 1.15333 11.5804 2.02C12.7271 2.88667 13.4404 4.06 13.7204 5.54H10.1004C9.86039 5.03333 9.49372 4.63333 9.00039 4.34C8.50706 4.03333 7.91372 3.88 7.22039 3.88C6.14039 3.88 5.27372 4.24667 4.62039 4.98C3.96706 5.7 3.64039 6.68 3.64039 7.92C3.64039 9.26667 3.98039 10.3 4.66039 11.02C5.35372 11.74 6.33372 12.1 7.60039 12.1C8.41372 12.1 9.12706 11.88 9.74039 11.44C10.3537 10.9867 10.7871 10.3467 11.0404 9.52H6.72039V7.06H13.9004V10.44C13.6337 11.2667 13.2071 12.0333 12.6204 12.74C12.0337 13.4467 11.2804 14.02 10.3604 14.46C9.45372 14.9 8.41372 15.12 7.24039 15.12C5.81372 15.12 4.56706 14.82 3.50039 14.22C2.43372 13.6067 1.60706 12.7533 1.02039 11.66C0.447057 10.5667 0.160391 9.32 0.160391 7.92C0.160391 6.52 0.447057 5.27333 1.02039 4.18C1.60706 3.08667 2.42706 2.24 3.48039 1.64C4.54706 1.02667 5.78706 0.719999 7.20039 0.719999ZM19.2348 0.2V15H15.8148V0.2H19.2348ZM26.816 3.7C27.9227 3.7 28.9093 3.93333 29.776 4.4C30.656 4.85333 31.3427 5.51333 31.836 6.38C32.3427 7.24667 32.596 8.26 32.596 9.42C32.596 10.58 32.3427 11.5933 31.836 12.46C31.3427 13.3267 30.656 13.9933 29.776 14.46C28.9093 14.9133 27.9227 15.14 26.816 15.14C25.7093 15.14 24.716 14.9133 23.836 14.46C22.956 13.9933 22.2627 13.3267 21.756 12.46C21.2627 11.5933 21.016 10.58 21.016 9.42C21.016 8.26 21.2627 7.24667 21.756 6.38C22.2627 5.51333 22.956 4.85333 23.836 4.4C24.716 3.93333 25.7093 3.7 26.816 3.7ZM26.816 6.66C26.1627 6.66 25.6093 6.9 25.156 7.38C24.716 7.84667 24.496 8.52667 24.496 9.42C24.496 10.3133 24.716 10.9933 25.156 11.46C25.6093 11.9267 26.1627 12.16 26.816 12.16C27.4693 12.16 28.016 11.9267 28.456 11.46C28.896 10.9933 29.116 10.3133 29.116 9.42C29.116 8.52667 28.896 7.84667 28.456 7.38C28.016 6.9 27.4693 6.66 26.816 6.66ZM41.3295 3.7C42.2495 3.7 43.0695 3.93333 43.7895 4.4C44.5228 4.85333 45.0961 5.51333 45.5095 6.38C45.9361 7.23333 46.1495 8.24667 46.1495 9.42C46.1495 10.58 45.9361 11.5933 45.5095 12.46C45.0961 13.3267 44.5228 13.9933 43.7895 14.46C43.0695 14.9133 42.2495 15.14 41.3295 15.14C40.4761 15.14 39.7428 14.9467 39.1295 14.56C38.5161 14.1733 38.0695 13.6467 37.7895 12.98V15H34.3695V0.2H37.7895V5.86C38.0695 5.19333 38.5161 4.66667 39.1295 4.28C39.7428 3.89333 40.4761 3.7 41.3295 3.7ZM40.2295 6.7C39.5095 6.7 38.9161 6.94667 38.4495 7.44C37.9961 7.92 37.7695 8.58 37.7695 9.42C37.7695 10.2467 37.9961 10.9067 38.4495 11.4C38.9161 11.8933 39.5095 12.14 40.2295 12.14C40.9628 12.14 41.5495 11.9 41.9895 11.42C42.4428 10.94 42.6695 10.2733 42.6695 9.42C42.6695 8.56667 42.4428 7.9 41.9895 7.42C41.5495 6.94 40.9628 6.7 40.2295 6.7ZM52.1641 3.7C53.0175 3.7 53.7508 3.89333 54.3641 4.28C54.9775 4.66667 55.4308 5.19333 55.7241 5.86V3.84H59.1241V15H55.7241V12.98C55.4308 13.6467 54.9775 14.1733 54.3641 14.56C53.7508 14.9467 53.0175 15.14 52.1641 15.14C51.2441 15.14 50.4175 14.9133 49.6841 14.46C48.9641 13.9933 48.3908 13.3267 47.9641 12.46C47.5508 11.5933 47.3441 10.58 47.3441 9.42C47.3441 8.24667 47.5508 7.23333 47.9641 6.38C48.3908 5.51333 48.9641 4.85333 49.6841 4.4C50.4175 3.93333 51.2441 3.7 52.1641 3.7ZM53.2641 6.7C52.5308 6.7 51.9375 6.94 51.4841 7.42C51.0441 7.9 50.8241 8.56667 50.8241 9.42C50.8241 10.2733 51.0441 10.94 51.4841 11.42C51.9375 11.9 52.5308 12.14 53.2641 12.14C53.9841 12.14 54.5708 11.8933 55.0241 11.4C55.4908 10.9067 55.7241 10.2467 55.7241 9.42C55.7241 8.58 55.4908 7.92 55.0241 7.44C54.5708 6.94667 53.9841 6.7 53.2641 6.7ZM64.8988 0.2V15H61.4788V0.2H64.8988ZM72.3001 3.7C73.7401 3.7 74.9467 4.1 75.9201 4.9C76.8934 5.68667 77.5067 6.77333 77.7601 8.16H74.1401C74.0334 7.68 73.8134 7.30667 73.4801 7.04C73.1467 6.77333 72.7267 6.64 72.2201 6.64C71.6201 6.64 71.1267 6.88 70.7401 7.36C70.3534 7.82667 70.1601 8.51333 70.1601 9.42C70.1601 10.3267 70.3534 11.02 70.7401 11.5C71.1267 11.9667 71.6201 12.2 72.2201 12.2C72.7267 12.2 73.1467 12.0667 73.4801 11.8C73.8134 11.5333 74.0334 11.16 74.1401 10.68H77.7601C77.5067 12.0667 76.8934 13.16 75.9201 13.96C74.9467 14.7467 73.7401 15.14 72.3001 15.14C71.2067 15.14 70.2334 14.9133 69.3801 14.46C68.5401 13.9933 67.8801 13.3267 67.4001 12.46C66.9201 11.5933 66.6801 10.58 66.6801 9.42C66.6801 8.24667 66.9134 7.23333 67.3801 6.38C67.8601 5.51333 68.5267 4.85333 69.3801 4.4C70.2334 3.93333 71.2067 3.7 72.3001 3.7ZM82.9652 0.2V15H79.5452V0.2H82.9652ZM95.9265 9.12C95.9265 9.4 95.8932 9.70667 95.8265 10.04H88.0865C88.1265 10.88 88.3398 11.4867 88.7265 11.86C89.1132 12.22 89.6065 12.4 90.2065 12.4C90.7132 12.4 91.1332 12.2733 91.4665 12.02C91.7998 11.7667 92.0198 11.44 92.1265 11.04H95.7465C95.5998 11.8267 95.2798 12.5333 94.7865 13.16C94.2932 13.7733 93.6665 14.26 92.9065 14.62C92.1465 14.9667 91.2998 15.14 90.3665 15.14C89.2732 15.14 88.2998 14.9133 87.4465 14.46C86.6065 13.9933 85.9465 13.3267 85.4665 12.46C84.9865 11.5933 84.7465 10.58 84.7465 9.42C84.7465 8.24667 84.9798 7.23333 85.4465 6.38C85.9265 5.51333 86.5932 4.85333 87.4465 4.4C88.2998 3.93333 89.2732 3.7 90.3665 3.7C91.4732 3.7 92.4465 3.92667 93.2865 4.38C94.1265 4.83333 94.7732 5.47333 95.2265 6.3C95.6932 7.11333 95.9265 8.05333 95.9265 9.12ZM92.4665 8.6C92.4798 7.86667 92.2798 7.32 91.8665 6.96C91.4665 6.58667 90.9665 6.4 90.3665 6.4C89.7398 6.4 89.2198 6.58667 88.8065 6.96C88.3932 7.33333 88.1598 7.88 88.1065 8.6H92.4665ZM101.949 3.7C102.803 3.7 103.536 3.89333 104.149 4.28C104.763 4.66667 105.216 5.19333 105.509 5.86V3.84H108.909V15H105.509V12.98C105.216 13.6467 104.763 14.1733 104.149 14.56C103.536 14.9467 102.803 15.14 101.949 15.14C101.029 15.14 100.203 14.9133 99.4693 14.46C98.7493 13.9933 98.176 13.3267 97.7493 12.46C97.336 11.5933 97.1293 10.58 97.1293 9.42C97.1293 8.24667 97.336 7.23333 97.7493 6.38C98.176 5.51333 98.7493 4.85333 99.4693 4.4C100.203 3.93333 101.029 3.7 101.949 3.7ZM103.049 6.7C102.316 6.7 101.723 6.94 101.269 7.42C100.829 7.9 100.609 8.56667 100.609 9.42C100.609 10.2733 100.829 10.94 101.269 11.42C101.723 11.9 102.316 12.14 103.049 12.14C103.769 12.14 104.356 11.8933 104.809 11.4C105.276 10.9067 105.509 10.2467 105.509 9.42C105.509 8.58 105.276 7.92 104.809 7.44C104.356 6.94667 103.769 6.7 103.049 6.7ZM118.344 3.72C119.624 3.72 120.637 4.14667 121.384 5C122.144 5.85333 122.524 7.02667 122.524 8.52V15H119.104V8.92C119.104 8.17333 118.904 7.59333 118.504 7.18C118.117 6.75333 117.597 6.54 116.944 6.54C116.251 6.54 115.697 6.76 115.284 7.2C114.884 7.64 114.684 8.26667 114.684 9.08V15H111.264V3.84H114.684V5.88C115.004 5.21333 115.477 4.68667 116.104 4.3C116.744 3.91333 117.491 3.72 118.344 3.72Z" fill="#333333"/>
</svg>
