<svg width="80" height="80" viewBox="0 0 80 80" fill="none" xmlns="http://www.w3.org/2000/svg">
<path d="M56.8002 29.3332H49.3335V26.6665H50.6667C51.0667 26.6665 51.4667 26.5332 51.7335 26.1332C52.0002 25.7332 52.1335 25.3332 52.0002 24.9332L49.3335 15.6C49.0667 15.0667 48.5335 14.6667 48.0002 14.6667H45.3335V5.33324C45.3335 4.93324 45.2002 4.66652 44.9335 4.39996L40.9334 0.399961C40.4002 -0.13332 39.6002 -0.13332 39.0667 0.399961L35.0667 4.39996C34.8 4.66668 34.6667 4.93324 34.6667 5.33324V14.6665H32.0002C31.3334 14.6665 30.8002 15.0665 30.6669 15.5998L28.0002 24.9332C28.0002 25.3332 28.0002 25.7332 28.2669 26.1332C28.5336 26.5332 28.9336 26.6665 29.3336 26.6665H30.6669V29.3332H23.2002C20.0002 29.3332 17.3334 32 17.3334 35.2V44V65.3332V74.1333C17.3334 77.3333 20.0002 80 23.2002 80H56.8002C60.0002 80 62.6669 77.3333 62.6669 74.1333V66.6665V42.6665V35.2C62.6669 32 60.0002 29.3332 56.8002 29.3332ZM37.3334 5.86668L40.0002 3.19996L42.6669 5.86668V14.6667H37.3336V5.86668H37.3334ZM33.0669 17.3332H46.9336L48.8002 24H46.6669V21.3332C46.6669 20.5332 46.1336 20 45.3336 20C44.5336 20 44.0003 20.5332 44.0003 21.3332V24H41.3336V21.3332C41.3336 20.5332 40.8003 20 40.0003 20C39.2003 20 38.667 20.5332 38.667 21.3332V24H36.0002V21.3332C36.0002 20.5332 35.4669 20 34.6669 20C33.8669 20 33.3336 20.5332 33.3336 21.3332V24H31.0669L33.0669 17.3332ZM33.3334 26.6667H46.6667V29.3334H33.3334V26.6667ZM20.0002 45.3332H28.0002V64H20.0002V45.3332ZM60.0002 49.3332H52.0002C51.2002 49.3332 50.6669 49.8665 50.6669 50.6665C50.6669 51.4665 51.2002 51.9998 52.0002 51.9998H60.0002V57.3331H48.0002C47.2002 57.3331 46.6669 57.8664 46.6669 58.6664C46.6669 59.4664 47.2002 60 48.0002 60H60.0002V64H41.8669C41.6002 64 41.3336 63.7333 41.3336 63.4667V45.8667C41.3336 45.6 41.6003 45.3334 41.8669 45.3334H60.0002V49.3332ZM41.8669 42.6667C40.1336 42.6667 38.6669 44.1334 38.6669 45.8667V63.4667C38.6669 65.2 40.1336 66.6667 41.8669 66.6667H60.0002V74.1334C60.0002 75.8667 58.5335 77.3334 56.8002 77.3334H23.2002C21.4669 77.3334 20.0002 75.8667 20.0002 74.1334V66.6667H29.3334C30.1334 66.6667 30.6667 66.1334 30.6667 65.3334V44C30.6667 43.2 30.1334 42.6667 29.3334 42.6667H20.0002V35.2C20.0002 33.4667 21.4669 32 23.2002 32H30.6669H49.3336H56.8003C58.5336 32 60.0003 33.4667 60.0003 35.2V42.6667H41.8669Z" fill="#3CA19D"/>
<path d="M40.0003 6.66663C39.2003 6.66663 38.667 7.19991 38.667 7.99991V10.6666C38.667 11.4666 39.2003 11.9999 40.0003 11.9999C40.8003 11.9999 41.3336 11.4666 41.3336 10.6666V7.99991C41.3336 7.19991 40.8003 6.66663 40.0003 6.66663Z" fill="#3CA19D"/>
</svg>
