<svg width="35" height="32" viewBox="0 0 35 32" fill="none" xmlns="http://www.w3.org/2000/svg">
<path d="M17.3333 2C13.6607 2 10.3333 4.9785 10.3333 8.65233C10.3333 12.325 13.369 16.7105 17.3333 23C21.2977 16.7105 24.3333 12.325 24.3333 8.65233C24.3333 4.9785 21.0072 2 17.3333 2ZM17.3333 11.3333C16.0442 11.3333 15 10.2892 15 9C15 7.71083 16.0442 6.66667 17.3333 6.66667C18.6225 6.66667 19.6667 7.71083 19.6667 9C19.6667 10.2892 18.6225 11.3333 17.3333 11.3333ZM26.6667 25.3333C26.6667 27.9105 22.4888 30 17.3333 30C12.1778 30 8 27.9105 8 25.3333C8 23.4643 10.2027 21.8567 13.376 21.1112L14.7223 23.2392C14.2545 23.3185 13.782 23.3967 13.348 23.5215C9.484 24.6287 9.3195 25.982 13.3235 27.1405C15.7595 27.844 18.8967 27.8463 21.3432 27.1393C25.5653 25.9178 25.0345 24.4852 21.0305 23.4445C20.6852 23.3547 20.306 23.3068 19.9385 23.245L21.2872 21.1123C24.464 21.8567 26.6667 23.4643 26.6667 25.3333Z" fill="#D0D6E2"/>
</svg>
