<svg width="54" height="45" viewBox="0 0 54 45" fill="none" xmlns="http://www.w3.org/2000/svg">
<g clip-path="url(#clip0_1_325)">
<path d="M6.87595 28.7791C6.45629 28.3212 5.74459 28.2896 5.28644 28.7096C5.15639 28.8288 5.02182 28.949 4.88302 29.0711C4.41632 29.4811 4.37023 30.1919 4.78019 30.6587C5.00283 30.9119 5.31344 31.0413 5.62594 31.0413C5.88961 31.0413 6.15434 30.9491 6.36802 30.7615C6.51894 30.6289 6.66512 30.498 6.80634 30.3685C7.2645 29.9489 7.29572 29.2372 6.87595 28.7791Z" fill="white"/>
<path d="M7.62957 27.9933C7.82532 28.1296 8.04923 28.1951 8.27113 28.1951C8.62688 28.1951 8.97693 28.0266 9.19557 27.7126C11.0479 25.0507 11.3267 22.4201 11.6957 17.6166C11.7434 16.997 11.2798 16.4562 10.6601 16.4086C10.0388 16.3611 9.49984 16.8248 9.45228 17.4442C9.10465 21.969 8.8702 24.2412 7.34892 26.4274C6.99359 26.9373 7.11952 27.6385 7.62957 27.9933Z" fill="white"/>
<path d="M42.0122 15.5917C42.125 16.1203 42.5918 16.4825 43.1114 16.4825C43.1889 16.4825 43.2679 16.4743 43.347 16.4575C43.9545 16.3279 44.3424 15.7304 44.2127 15.1228C44.1664 14.9051 44.1152 14.6859 44.0606 14.4713C43.9075 13.8691 43.295 13.505 42.6931 13.6581C42.091 13.8112 41.7269 14.4235 41.8801 15.0256C41.9274 15.2121 41.9719 15.4026 42.0122 15.5917Z" fill="white"/>
<path d="M49.0943 29.0519C45.8011 26.313 45.0777 23.6446 44.6189 18.3185C44.5654 17.6994 44.0199 17.2405 43.4015 17.2943C42.7825 17.3477 42.3239 17.8928 42.3773 18.5116C42.8728 24.263 43.7888 27.566 47.6556 30.7818C47.8659 30.9566 48.1208 31.0419 48.3743 31.0419C48.6971 31.0419 49.0175 30.9037 49.24 30.6362C49.6372 30.1585 49.5719 29.4492 49.0943 29.0519Z" fill="white"/>
<path d="M46.6073 33.1424C46.5923 33.1124 46.5762 33.0834 46.5585 33.0551C46.2865 32.5698 45.9397 32.1993 45.5224 31.9586C42.4863 30.2065 40.6489 25.439 40.0612 17.7887C39.6253 12.1145 35.5794 7.46381 30.3152 6.06192C30.7095 5.44883 30.9391 4.72036 30.9391 3.93894C30.9392 1.76702 29.172 0 27 0C24.8282 0 23.0612 1.76702 23.0612 3.93905C23.0612 4.72047 23.291 5.44883 23.685 6.06203C18.4209 7.46381 14.375 12.1146 13.9389 17.7888C13.3511 25.4391 11.5137 30.2065 8.47781 31.9587C7.59852 32.4661 7.02709 33.5436 6.82564 35.0751C6.69497 36.0693 6.65468 38.1566 7.43916 38.9404C7.65009 39.1513 7.93623 39.2697 8.23429 39.2697H20.2391C20.7774 42.5161 23.6035 45 27.0003 45C30.3971 45 33.2231 42.5161 33.7616 39.2697H45.7662C46.0643 39.2697 46.3504 39.1513 46.5613 38.9404C47.346 38.1561 47.3055 36.0681 47.1745 35.0736C47.0741 34.313 46.8825 33.6647 46.6073 33.1424ZM27 2.24996C27.9314 2.24996 28.6891 3.00765 28.6891 3.93905C28.6891 4.87034 27.9315 5.62802 27 5.62802C26.0688 5.62802 25.3112 4.87034 25.3112 3.93905C25.3113 3.00765 26.0689 2.24996 27 2.24996ZM27 42.75C24.8487 42.75 23.0377 41.267 22.5344 39.2697H31.4656C30.9624 41.267 29.1514 42.75 27 42.75ZM44.9546 37.0197H9.04555C8.99893 36.652 8.97436 36.1188 9.03848 35.5184C9.14617 34.5131 9.43463 34.0043 9.60232 33.9074C13.3726 31.7314 15.525 26.5154 16.1822 17.9611C16.6165 12.307 21.3684 7.87799 26.9999 7.87799C32.6315 7.87799 37.3833 12.3071 37.8176 17.9611C38.1338 22.0764 38.7969 25.4168 39.8189 28.0201H35.5896C34.9685 28.0201 34.4646 28.5237 34.4646 29.1451C34.4646 29.7666 34.9685 30.2702 35.5896 30.2702H40.8971C41.4057 31.1402 41.9751 31.8891 42.6054 32.5201H31.3873C30.7662 32.5201 30.2623 33.0237 30.2623 33.6452C30.2623 34.2665 30.7662 34.7702 31.3873 34.7702H44.8297C44.8837 34.9799 44.9302 35.2277 44.9613 35.5183C45.0258 36.1187 45.0011 36.6519 44.9546 37.0197Z" fill="white"/>
<path d="M27.3376 32.5205H26.6626C26.0413 32.5205 25.5376 33.0241 25.5376 33.6455C25.5376 34.2669 26.0412 34.7706 26.6626 34.7706H27.3376C27.9587 34.7706 28.4627 34.267 28.4627 33.6455C28.4627 33.0241 27.9588 32.5205 27.3376 32.5205Z" fill="white"/>
</g>
<defs>
<clipPath id="clip0_1_325">
<rect width="54" height="45" fill="white"/>
</clipPath>
</defs>
</svg>
