<svg width="80" height="80" viewBox="0 0 80 80" fill="none" xmlns="http://www.w3.org/2000/svg">
<g clip-path="url(#clip0_1_109)">
<path d="M69.6343 64.0366L46.941 58.6946C46.9331 58.6933 46.9251 58.6919 46.917 58.6892C40.9656 56.6415 36.5341 51.4434 33.5945 47.9946C32.8213 47.0894 32.1546 46.3068 31.5841 45.7308C30.1402 44.2762 28.0378 44.0469 26.47 45.1735C24.9608 46.2574 24.5369 48.1664 25.4154 49.9236C25.4475 49.9876 25.4834 50.0476 25.5248 50.1049C25.8062 50.4969 32.5066 59.7518 40.7071 63.8513C41.367 64.1819 42.1669 63.9127 42.4962 63.2554C42.8256 62.5969 42.5576 61.7956 41.899 61.4663C34.7118 57.8734 28.4726 49.6091 27.758 48.6425C27.4233 47.8825 27.8286 47.4799 28.0259 47.3399C28.4032 47.0679 29.0631 46.9786 29.691 47.6093C30.191 48.1133 30.8282 48.8598 31.5655 49.725C34.5278 53.2005 39.486 59.0172 46.2131 61.2663C46.2999 61.2957 46.3878 61.3157 46.4772 61.3263L69.0066 66.6283C74.6847 68.0467 77.3282 70.6011 77.3282 74.6674V77.3338H34.1572L32.8253 74.6674H73.3286C74.0658 74.6674 74.6617 74.0701 74.6617 73.3343C74.6617 72.5984 74.0658 72.0011 73.3286 72.0011H2.67013V54.1657C6.29236 55.7308 14.282 58.0226 23.2718 53.1672C23.9197 52.8179 24.161 52.0088 23.8117 51.3607C23.4624 50.7141 22.6533 50.4688 22.0052 50.8208C11.4132 56.5401 2.41953 51.1048 2.04489 50.8741C1.63556 50.6155 1.11437 50.6008 0.691765 50.8367C0.267752 51.0714 0.00512695 51.5181 0.00512695 52.0033V78.6669C0.00512695 79.4028 0.600995 80 1.337 80H28.0006C28.5058 80 28.9685 79.7148 29.1937 79.2628L30.6668 76.3152L32.14 79.2628C32.3666 79.7148 32.8278 80 33.3331 80H78.6611C79.3983 80 79.9942 79.4028 79.9942 78.6669V74.6674C79.9945 69.3319 76.5162 65.7576 69.6343 64.0366ZM27.1766 77.3336H2.67013V74.6672H28.5098L27.1766 77.3336Z" fill="#3CA19D"/>
<path d="M17.3363 34.6627H46.6662C60.1326 34.6627 69.3449 31.8136 69.8049 31.6671C76.5682 29.0914 79.9957 24.2679 79.9957 17.3314C79.9957 10.3349 76.5641 5.51014 69.7276 2.96903C69.3382 2.84764 60.0473 0 46.6662 0H17.3363C7.78013 0 0.00634766 7.77378 0.00634766 17.3313C0.00634766 26.8875 7.78013 34.6627 17.3363 34.6627ZM17.3363 2.66641H46.6662C59.6153 2.66641 68.8436 5.48608 68.8663 5.49139C74.5615 7.61114 77.3293 11.4827 77.3293 17.3314C77.3293 23.1293 74.5576 27.0023 68.9317 29.1486C68.8411 29.178 59.6955 31.9963 46.6664 31.9963H17.3363C9.25058 31.9963 2.67135 25.417 2.67135 17.3313C2.67135 9.24564 9.25058 2.66641 17.3363 2.66641Z" fill="#3CA19D"/>
<path d="M17.3353 29.3298H49.3315C50.0688 29.3298 50.6646 28.7325 50.6646 27.9967C50.6646 27.2608 50.0688 26.6635 49.3315 26.6635H37.3329C35.8625 26.6635 34.6665 25.4677 34.6665 23.9971V10.6654C34.6665 9.19497 35.8623 7.99901 37.3329 7.99901H49.3315C50.0688 7.99901 50.6646 7.40174 50.6646 6.66589C50.6646 5.93004 50.0688 5.33276 49.3315 5.33276H17.3353C10.6081 5.33276 5.33667 10.6028 5.33667 17.3314C5.33667 24.0599 10.6081 29.3298 17.3353 29.3298ZM17.3353 7.99901H32.7428C32.2829 8.78689 32.0003 9.68944 32.0003 10.6654V23.9971C32.0003 24.973 32.2829 25.8755 32.7428 26.6635H17.3353C12.7491 26.6635 8.00308 23.1733 8.00308 17.3314C8.00308 12.0985 12.1026 7.99901 17.3353 7.99901Z" fill="#3CA19D"/>
<path d="M54.6642 26.6635C55.4015 26.6635 55.9974 26.0662 55.9974 25.3304V9.33227C55.9974 8.59642 55.4015 7.99915 54.6642 7.99915C53.9284 7.99915 53.3311 8.59642 53.3311 9.33227V25.3304C53.3311 26.0662 53.9284 26.6635 54.6642 26.6635Z" fill="#3CA19D"/>
<path d="M39.999 11.9987V22.6641C39.999 23.4 40.5962 23.9972 41.3321 23.9972C42.0693 23.9972 42.6652 23.4 42.6652 22.6641V11.9987C42.6652 11.2628 42.0693 10.6655 41.3321 10.6655C40.5962 10.6655 39.999 11.2628 39.999 11.9987Z" fill="#3CA19D"/>
<path d="M45.332 11.9987V22.6641C45.332 23.4 45.9293 23.9972 46.6652 23.9972C47.4024 23.9972 47.9983 23.4 47.9983 22.6641V11.9987C47.9983 11.2628 47.4024 10.6655 46.6652 10.6655C45.9293 10.6655 45.332 11.2628 45.332 11.9987Z" fill="#3CA19D"/>
</g>
<defs>
<clipPath id="clip0_1_109">
<rect width="80" height="80" fill="white"/>
</clipPath>
</defs>
</svg>
