<svg width="80" height="80" viewBox="0 0 80 80" fill="none" xmlns="http://www.w3.org/2000/svg">
<path d="M4.45978 22.7876C7.14944 24.3601 11.0461 25.1913 15.7291 25.1913C22.3468 25.1913 29.6764 27.2592 30.1311 31.7994C30.448 34.9636 26.8708 37.8564 21.2297 38.9976C20.6889 39.1072 20.3392 39.6342 20.4486 40.175C20.5445 40.649 20.9612 40.9762 21.4269 40.9762C21.4924 40.9762 21.5593 40.9697 21.6262 40.9562C24.9967 40.2742 27.7594 39.0201 29.6154 37.3291C31.4343 35.6721 32.3235 33.6376 32.1195 31.6001C31.8839 29.2464 30.2372 27.1237 27.4829 25.6227C24.5656 24.0329 20.5011 23.1927 15.7291 23.1927C11.4004 23.1927 7.85232 22.456 5.46842 21.0622C3.55033 19.9408 2.49409 18.4358 2.49409 16.8247C2.49409 12.0546 9.96226 9.20396 17.1825 9.20396C17.7344 9.20396 18.1816 8.75668 18.1816 8.20476C18.1816 7.65284 17.7344 7.20557 17.1825 7.20557C12.2964 7.20557 8.08959 8.20313 5.01624 10.0903C2.14346 11.8547 0.49588 14.3093 0.49588 16.8247C0.49588 19.1754 1.90366 21.293 4.45978 22.7876Z" fill="#3CA19D"/>
<path d="M11.5889 42.0676C12.0862 41.9737 12.6043 41.8905 13.1288 41.8205C13.6758 41.7475 14.0599 41.2448 13.9868 40.6978C13.9138 40.1508 13.4107 39.7665 12.8641 39.8398C12.3044 39.9146 11.7506 40.0034 11.2181 40.1039C10.6759 40.2064 10.3192 40.7289 10.4217 41.2711C10.5124 41.7508 10.9315 42.085 11.4024 42.085C11.4638 42.085 11.5263 42.0794 11.5889 42.0676Z" fill="#3CA19D"/>
<path d="M13.4066 58.9719C15.4599 59.2682 17.4275 59.416 19.3071 59.416C24.1145 59.416 28.3415 58.4481 31.9228 56.5209C32.4088 56.2595 32.5906 55.6534 32.3292 55.1676C32.0676 54.6817 31.4619 54.4998 30.9757 54.7612C26.3794 57.2347 20.5645 57.9859 13.6922 56.994C8.67367 56.2697 2.61019 53.9372 2.03756 49.7475C1.70546 47.3187 3.58304 44.9542 7.05988 43.4222C7.56493 43.1997 7.79384 42.6099 7.57129 42.1049C7.34874 41.5999 6.75885 41.3708 6.25398 41.5935C1.9142 43.5058 -0.402118 46.6552 0.0575121 50.0182C0.661753 54.4399 5.77691 57.8707 13.4066 58.9719Z" fill="#3CA19D"/>
<path d="M12.5731 52.0027C13.4113 52.3946 14.4848 52.6011 15.6698 52.6009C19.1692 52.6008 23.6385 50.7995 25.874 46.6477C26.1356 46.1618 25.9537 45.5559 25.468 45.2943C24.9822 45.0327 24.3761 45.2145 24.1145 45.7003C21.6216 50.33 15.6893 51.2533 13.4191 50.1922C12.6217 49.8195 12.7595 49.4756 12.8416 49.2702C13.0298 48.7996 13.6099 48.3669 14.5191 48.0186C15.0345 47.8213 15.2923 47.2434 15.0948 46.7282C14.8976 46.213 14.3195 45.955 13.8044 46.1525C12.3405 46.7131 11.3922 47.5123 10.986 48.528C10.4183 49.9484 11.0263 51.2798 12.5731 52.0027Z" fill="#3CA19D"/>
<path d="M16.854 47.4134C16.9054 47.4134 16.9575 47.4094 17.0099 47.4012C17.6773 47.2966 18.4189 47.2157 19.2137 47.1607C19.7644 47.1227 20.1797 46.6455 20.1417 46.095C20.1037 45.5445 19.6287 45.1285 19.076 45.167C18.2238 45.2259 17.4246 45.3133 16.7003 45.4268C16.1551 45.5122 15.7823 46.0234 15.8679 46.5686C15.9453 47.0617 16.3704 47.4134 16.854 47.4134Z" fill="#3CA19D"/>
<path d="M79.0117 55.0153C78.4768 54.8816 77.9338 55.2068 77.7999 55.7423C77.4506 57.1397 76.8578 58.5208 76.0381 59.8468C75.7479 60.3163 75.8933 60.932 76.3625 61.2221C76.5262 61.3233 76.7077 61.3716 76.887 61.3716C77.2218 61.3716 77.549 61.2034 77.738 60.8976C78.6661 59.3961 79.3394 57.8246 79.7389 56.227C79.8726 55.6916 79.5471 55.1492 79.0117 55.0153Z" fill="#3CA19D"/>
<path d="M74.3167 62.1803C71.1632 65.8307 66.2152 68.867 60.7412 70.5104C55.3823 72.1191 50.3104 72.1847 46.8263 70.6901C44.0369 69.4936 43.6795 68.5676 43.6552 68.2249C43.6139 67.644 44.3226 66.8651 45.5996 66.0881C46.0711 65.8013 46.2206 65.1865 45.9337 64.715C45.6468 64.2436 45.0326 64.0941 44.5606 64.3809C42.537 65.6125 41.5618 66.9532 41.6617 68.3661C41.774 69.9503 43.2055 71.3112 46.0384 72.5264C47.9988 73.3674 50.31 73.7599 52.7918 73.7598C60.7471 73.7592 70.4407 69.7237 75.8289 63.4866C76.1897 63.0689 76.1436 62.438 75.7261 62.0772C75.3081 61.7167 74.6775 61.7629 74.3167 62.1803Z" fill="#3CA19D"/>
<path d="M52.0426 61.1305C51.5515 61.3529 51.0592 61.5684 50.579 61.7709C50.0705 61.9855 49.8324 62.5716 50.0467 63.0799C50.2077 63.4616 50.5779 63.691 50.9678 63.691C51.0973 63.691 51.2291 63.6658 51.3557 63.6122C51.8517 63.4029 52.3602 63.1805 52.867 62.9509C53.3697 62.7233 53.5926 62.1312 53.365 61.6285C53.1374 61.1258 52.546 60.9031 52.0426 61.1305Z" fill="#3CA19D"/>
<path d="M69.3765 18.3426L71.78 15.7953C73.4764 16.6094 75.0201 17.5061 76.3746 18.4668C76.5501 18.5913 76.752 18.651 76.9518 18.651C77.2648 18.651 77.5729 18.5044 77.7677 18.2297C78.0869 17.7796 77.9808 17.1559 77.5306 16.8367C76.2391 15.9207 74.7905 15.0625 73.215 14.2744L77.5115 9.72131C78.2826 8.90433 78.2642 7.64208 77.4699 6.84799C76.6757 6.05372 75.4136 6.03537 74.5966 6.80639L68.7262 12.3461C57.1904 8.08191 42.6703 7.42898 34.8993 7.42898C34.8679 7.42898 34.8355 7.42898 34.8043 7.42898C34.2524 7.42934 33.8054 7.87698 33.8058 8.4289C33.8062 8.98064 34.2535 9.42737 34.805 9.42737C34.8052 9.42737 34.8054 9.42737 34.8057 9.42737C42.2047 9.41901 55.9625 10.0125 67.0965 13.8841L64.4464 16.3849C59.6977 14.8003 49.88 12.2729 34.296 11.6556C33.7455 11.6345 33.2799 12.0631 33.2581 12.6144C33.2363 13.1658 33.6656 13.6305 34.2169 13.6523C48.5107 14.2186 57.8299 16.4023 62.7881 17.9498L55.486 24.8404C48.1237 21.554 37.3895 20.5139 28.7159 19.6742C22.3252 19.0554 15.7171 18.4158 14.6113 17.046C14.5317 16.9475 14.5373 16.9004 14.5422 16.8588C14.8069 14.5825 19.3869 13.2839 26.7944 13.386C27.3445 13.3885 27.7996 12.9525 27.8072 12.4006C27.8148 11.8489 27.3735 11.3954 26.8218 11.3878C20.6032 11.3022 13.0789 12.1421 12.5571 16.6279C12.4868 17.2313 12.6594 17.8099 13.0563 18.3013C14.6134 20.23 19.6881 20.8079 28.5233 21.6633C36.7484 22.4596 46.86 23.4388 53.9024 26.3349L49.1923 30.7795C47.292 29.5225 44.8784 28.4119 42.0003 27.4732C41.4756 27.3021 40.9117 27.5888 40.7404 28.1132C40.5693 28.6379 40.856 29.202 41.3804 29.3731C43.8902 30.1918 46.0071 31.1377 47.695 32.1923L42.6313 36.9707L41.5605 37.2152C38.2379 37.974 36.0765 41.0933 36.5329 44.4708C36.8208 46.602 35.5562 48.6629 33.5257 49.3712L32.2765 49.8071C31.8608 49.952 31.5891 50.3521 31.6072 50.7919C31.6254 51.2317 31.9293 51.6078 32.3555 51.7181C32.454 51.7435 33.633 52.0382 35.3124 52.0382C37.1106 52.0382 39.4823 51.7001 41.7129 50.3317C44.5092 48.6162 46.4008 45.7082 47.3435 41.6916L51.9223 36.8393C52.6074 38.9503 51.9152 41.2803 49.8269 43.9194C49.4845 44.3522 49.5577 44.9806 49.9904 45.323C50.1739 45.4682 50.3926 45.5387 50.6099 45.5387C50.9048 45.5387 51.1969 45.4086 51.394 45.1595C54.2221 41.5857 54.9036 38.2538 53.4286 35.2433L59.0371 29.2997C62.9863 32.6322 63.5003 37.1879 60.6102 43.1982C60.3712 43.6956 60.5803 44.2926 61.0777 44.5317C61.2174 44.5989 61.3647 44.6305 61.5099 44.6305C61.8819 44.6305 62.2391 44.4218 62.411 44.064C65.6969 37.2305 65.0216 31.7798 60.4113 27.8431L67.9309 19.8744C75.1545 23.1182 78.4357 27.5393 77.9552 33.3754C77.4165 39.9172 74.5585 45.5007 69.218 50.4451C64.5387 54.7774 58.8853 57.6964 55.1441 59.6277C54.6538 59.881 54.4614 60.4836 54.7146 60.9739C54.8921 61.3176 55.2413 61.5149 55.6034 61.5149C55.7578 61.5149 55.9144 61.4789 56.061 61.4034C63.9417 57.3346 78.611 49.7613 79.947 33.5392C80.4831 27.0274 76.9264 21.9208 69.3765 18.3426ZM75.9682 8.25994C75.9937 8.23596 76.0325 8.23669 76.0571 8.26122C76.0816 8.28574 76.0821 8.32462 76.0583 8.34987L48.7965 37.2399L47.0784 35.5218L75.9682 8.25994ZM45.6243 36.8938L47.4243 38.6938L46.4135 39.7651L44.553 37.9048L45.6243 36.8938ZM40.685 48.6173C39.2378 49.5098 37.6872 49.8727 36.3509 49.9877C37.9497 48.5726 38.812 46.414 38.5133 44.203C38.1961 41.8571 39.6974 39.6905 42.0054 39.1633L42.8031 38.981L45.3324 41.5103C44.4996 44.8369 42.9388 47.2277 40.685 48.6173Z" fill="#3CA19D"/>
<path d="M58.8954 49.3727C59.3513 48.8471 59.7856 48.3036 60.1868 47.7571C60.5132 47.3122 60.4175 46.6869 59.9726 46.3604C59.528 46.0339 58.9023 46.1297 58.5759 46.5746C58.2065 47.0776 57.8061 47.5785 57.3858 48.0632C57.0242 48.4802 57.0689 49.1111 57.4859 49.4728C57.675 49.6369 57.9081 49.7172 58.14 49.7172C58.4198 49.7173 58.6978 49.6005 58.8954 49.3727Z" fill="#3CA19D"/>
<path d="M56.386 50.5776C56.0192 50.1652 55.3879 50.1283 54.9753 50.4949C46.5328 58.0033 32.5997 61.3944 22.3979 62.917C11.2647 64.5785 2.03176 64.4339 1.9402 64.4325C1.38646 64.4218 0.933192 64.8618 0.923019 65.4135C0.913027 65.9652 1.35213 66.4205 1.90387 66.4305C1.91822 66.4307 2.15239 66.4345 2.58005 66.4345C4.92907 66.4345 13.1081 66.3215 22.6612 64.8981C37.9063 62.6267 49.2252 58.2831 56.3035 51.9881C56.7157 51.6215 56.7528 50.99 56.386 50.5776Z" fill="#3CA19D"/>
<path d="M37.9854 28.4156C38.0635 28.4343 38.1416 28.4432 38.2187 28.4432C38.6703 28.4432 39.08 28.1348 39.1897 27.6762C39.3181 27.1396 38.9871 26.6004 38.4503 26.4719C37.448 26.2321 36.8241 26.1199 36.7982 26.1151C36.2546 26.0176 35.7361 26.3793 35.6387 26.9223C35.5412 27.4653 35.9027 27.9845 36.4455 28.0823C36.4512 28.0834 37.0443 28.1905 37.9854 28.4156Z" fill="#3CA19D"/>
<path d="M66.5272 45.69C66.71 45.8326 66.9265 45.9018 67.1416 45.9018C67.4386 45.9018 67.7326 45.7699 67.9297 45.5177C70.6597 42.0235 73.6078 36.7186 72.1496 31.2905C72.0064 30.7576 71.4579 30.4417 70.9255 30.5847C70.3924 30.7278 70.0765 31.2759 70.2197 31.809C71.2047 35.4755 69.8683 39.7905 66.3551 44.2875C66.0152 44.7222 66.0923 45.3502 66.5272 45.69Z" fill="#3CA19D"/>
<path d="M69.031 29.1676C69.2232 29.4585 69.5413 29.6162 69.8656 29.6162C70.0547 29.6162 70.2458 29.5626 70.4153 29.4507C70.8758 29.1466 71.0025 28.5267 70.6983 28.0662C69.8952 26.8502 69.1296 26.2109 69.0449 26.1421C68.6186 25.7947 67.9932 25.8592 67.6441 26.2841C67.2949 26.7091 67.3565 27.3378 67.78 27.689C67.7861 27.6941 68.3942 28.2035 69.031 29.1676Z" fill="#3CA19D"/>
<path d="M28.9903 9.56733C29.011 9.56733 29.0319 9.5666 29.0528 9.56533C29.0599 9.56496 29.7731 9.52136 31.0121 9.48358C31.5637 9.46668 31.9972 9.00596 31.9805 8.4544C31.9637 7.90285 31.5036 7.46883 30.9511 7.48609C29.6774 7.52497 28.9596 7.56894 28.9296 7.57075C28.3788 7.60472 27.9601 8.07889 27.994 8.62954C28.0267 9.15947 28.4667 9.56733 28.9903 9.56733Z" fill="#3CA19D"/>
</svg>
